<?xml version="1.0" encoding="iso-8859-1"?>
<!-- Generator: Adobe Illustrator 21.0.0, SVG Export Plug-In . SVG Version: 6.00 Build 0)  -->
<svg xmlns="http://www.w3.org/2000/svg" xmlns:xlink="http://www.w3.org/1999/xlink" version="1.1" id="Capa_1" x="0px" y="0px" viewBox="0 0 512 512" style="enable-background:new 0 0 512 512;" xml:space="preserve" width="512" height="512">
<g>
	<g>
		<g>
			<g>
				<g>
					<g>
						<g>
							<g>
								<g>
									<g>
										<g>
											<g>
												<circle style="fill:#7FE881;" cx="256" cy="256" r="256"/>
											</g>
										</g>
									</g>
								</g>
							</g>
						</g>
					</g>
				</g>
			</g>
		</g>
	</g>
	<path style="fill:#5BC980;" d="M507.886,301.919l-66.034-66.035l-1,1.502l-77.186-77.186L29.676,299.824l211.755,211.755   C246.254,511.849,251.109,512,256,512C381.709,512,486.248,421.39,507.886,301.919z"/>
	<g>
		<g>
			<path style="fill:#FFDA00;" d="M393.655,217.106l-18.1-41.328c-6.596-15.06-21.479-24.79-37.92-24.79h-94.386     c-16.441,0-31.325,9.73-37.92,24.79l-18.1,41.328h-30.08v89.443h302.278V279.14c0-34.26-27.773-62.034-62.034-62.034H393.655z"/>
		</g>
	</g>
	<g>
		<g>
			<path style="fill:#FFB000;" d="M459.426,279.14c0-34.26-27.773-62.033-62.034-62.033h-3.738l-18.1-41.328     c-6.596-15.061-21.479-24.79-37.92-24.79h-47.206v155.561h168.997V279.14z"/>
		</g>
	</g>
	<g>
		<g>
			<path style="fill:#7E8596;" d="M142.559,290.398v0.467c0,8.662,7.267,15.684,16.231,15.684h298.941     c8.992,0,16.27-7.063,16.231-15.751c-0.001-0.156-0.001-0.311-0.002-0.467c-0.039-8.636-7.294-15.617-16.231-15.617H158.79     C149.826,274.714,142.559,281.736,142.559,290.398z"/>
		</g>
	</g>
	<g>
		<g>
			<path style="fill:#FFFFFF;" d="M242.041,164.926c-7.026,0-13.386,4.158-16.205,10.594l-18.695,42.686h74.267v-53.28H242.041z"/>
		</g>
	</g>
	<g>
		<g>
			<path style="fill:#E9EDF5;" d="M359.402,177.977c-3.473-7.929-11.308-13.051-19.964-13.051H300.07v53.28h76.951L359.402,177.977z     "/>
		</g>
	</g>
	<g>
		<g>
			<circle style="fill:#545454;" cx="208.844" cy="301.939" r="34.426"/>
		</g>
	</g>
	<g>
		<g>
			<circle style="fill:#969696;" cx="208.844" cy="301.939" r="15.664"/>
		</g>
	</g>
	<g>
		<g>
			<circle style="fill:#424141;" cx="407.687" cy="301.939" r="34.426"/>
		</g>
	</g>
	<g>
		<g>
			<circle style="fill:#7F7F7F;" cx="407.687" cy="301.939" r="15.664"/>
		</g>
	</g>
	<g>
		<path style="fill:#E9EDF5;" d="M446.34,241.055h-20.267l0,0c0,12.848,10.416,23.264,23.264,23.264h8.293    C455.521,255.718,451.618,247.828,446.34,241.055z"/>
	</g>
	<g>
		<g>
			<g>
				<path style="fill:#FF641A;" d="M277.86,217.106l-18.1-41.328c-6.596-15.06-21.479-24.79-37.92-24.79h-94.386      c-16.441,0-31.325,9.73-37.92,24.79l-18.1,41.328h-30.08v89.443h302.278V279.14c0-34.26-27.773-62.034-62.034-62.034H277.86z"/>
			</g>
		</g>
		<g>
			<g>
				<path style="fill:#F03800;" d="M343.631,279.14c0-34.26-27.773-62.033-62.034-62.033h-3.738l-18.1-41.328      c-6.596-15.061-21.479-24.79-37.92-24.79h-43.911v155.561h165.703V279.14z"/>
			</g>
		</g>
		<g>
			<g>
				<path style="fill:#707789;" d="M26.764,290.398v0.467c0,8.662,7.267,15.684,16.231,15.684h298.941      c8.992,0,16.27-7.063,16.231-15.751c-0.001-0.156-0.001-0.311-0.002-0.467c-0.039-8.636-7.294-15.617-16.231-15.617H42.995      C34.031,274.714,26.764,281.736,26.764,290.398z"/>
			</g>
		</g>
		<g>
			<g>
				<path style="fill:#636978;" d="M358.166,290.331c-0.039-8.636-7.294-15.618-16.231-15.618H177.929v31.835h164.008      c8.992,0,16.27-7.063,16.231-15.751C358.167,290.642,358.167,290.486,358.166,290.331z"/>
			</g>
		</g>
		<g>
			<g>
				<path style="fill:#FFFFFF;" d="M126.246,164.926c-7.026,0-13.386,4.158-16.205,10.594l-18.695,42.686h74.267v-53.28H126.246z"/>
			</g>
		</g>
		<g>
			<g>
				<path style="fill:#E9EDF5;" d="M243.608,177.977c-3.473-7.929-11.308-13.051-19.964-13.051h-39.368v53.28h76.951      L243.608,177.977z"/>
			</g>
		</g>
		<g>
			<g>
				<circle style="fill:#545454;" cx="93.05" cy="301.939" r="34.426"/>
			</g>
		</g>
		<g>
			<g>
				<circle style="fill:#969696;" cx="93.05" cy="301.939" r="15.664"/>
			</g>
		</g>
		<g>
			<g>
				<circle style="fill:#424141;" cx="291.892" cy="301.939" r="34.426"/>
			</g>
		</g>
		<g>
			<g>
				<circle style="fill:#7F7F7F;" cx="291.892" cy="301.939" r="15.664"/>
			</g>
		</g>
		<g>
			<path style="fill:#E9EDF5;" d="M330.546,241.055h-20.267l0,0c0,12.848,10.416,23.264,23.264,23.264h8.293     C339.727,255.718,335.823,247.828,330.546,241.055z"/>
		</g>
	</g>
</g>















</svg>
