<?xml version="1.0" encoding="iso-8859-1"?>
<!-- Generator: Adobe Illustrator 21.0.0, SVG Export Plug-In . SVG Version: 6.00 Build 0)  -->
<svg xmlns="http://www.w3.org/2000/svg" xmlns:xlink="http://www.w3.org/1999/xlink" version="1.1" id="Capa_1" x="0px" y="0px" viewBox="0 0 512 512" style="enable-background:new 0 0 512 512;" xml:space="preserve" width="512" height="512">
<g>
	<g>
		<g>
			<g>
				<g>
					<g>
						<g>
							<g>
								<g>
									<g>
										<g>
											<g>
												<g>
													<circle style="fill:#4BB9EC;" cx="256" cy="256" r="256"/>
												</g>
											</g>
										</g>
									</g>
								</g>
							</g>
						</g>
					</g>
				</g>
			</g>
		</g>
	</g>
	<path style="fill:#0095FF;" d="M512,256c0-4.779-0.142-9.524-0.401-14.238L393.593,123.756l0,0L113.505,382.943l128.683,128.683   C246.762,511.87,251.366,512,256,512C397.385,512,512,397.385,512,256z"/>
	<g>
		<g>
			<g>
				<g>
					<g>
						<g>
							<g>
								<g>
									<g>
										<g>
											<g>
												<circle style="fill:#CDD2E1;" cx="256" cy="256" r="190.846"/>
											</g>
										</g>
									</g>
								</g>
							</g>
						</g>
					</g>
				</g>
			</g>
		</g>
	</g>
	<g>
		<g>
			<g>
				<g>
					<g>
						<g>
							<g>
								<g>
									<g>
										<g>
											<g>
												<path style="fill:#AFB4C8;" d="M256,65.154c105.401,0,190.846,85.445,190.846,190.846S361.401,446.846,256,446.846              V65.154z"/>
											</g>
										</g>
									</g>
								</g>
							</g>
						</g>
					</g>
				</g>
			</g>
		</g>
	</g>
	<path style="fill:#555A66;" d="M353.495,123.756c-10.493,0-19,8.507-19,19v92.271H275v-92.271c0-10.493-8.507-19-19-19   s-19,8.507-19,19v92.271h-59.495v-92.271c0-10.493-8.507-19-19-19s-19,8.507-19,19v226.489c0,10.493,8.507,19,19,19s19-8.507,19-19   v-96.217H237v96.217c0,10.493,8.507,19,19,19s19-8.507,19-19v-96.217h59.495v96.217c0,10.493,8.507,19,19,19s19-8.507,19-19   V142.756C372.495,132.262,363.988,123.756,353.495,123.756z"/>
	<path style="fill:#414952;" d="M256,388.244c10.493,0,19-8.507,19-19v-96.217h59.495v96.217c0,10.493,8.507,19,19,19   s19-8.507,19-19V142.756c0-10.493-8.507-19-19-19s-19,8.507-19,19v92.271H275v-92.271c0-10.493-8.507-19-19-19V388.244z"/>
</g>















</svg>
