<?xml version="1.0" encoding="UTF-8"?>
<!DOCTYPE svg PUBLIC "-//W3C//DTD SVG 1.1//EN" "http://www.w3.org/Graphics/SVG/1.1/DTD/svg11.dtd">
<!-- Creator: CorelDRAW 2019 (64-Bit) -->
<svg xmlns="http://www.w3.org/2000/svg" xml:space="preserve" width="168.607mm" height="168.656mm" version="1.1" style="shape-rendering:geometricPrecision; text-rendering:geometricPrecision; image-rendering:optimizeQuality; fill-rule:evenodd; clip-rule:evenodd"
viewBox="0 0 23847.6 23854.5"
 xmlns:xlink="http://www.w3.org/1999/xlink"
 xmlns:xodm="http://www.corel.com/coreldraw/odm/2003">
 <defs>
  <style type="text/css">
   <![CDATA[
    .fil0 {fill:#FEFEFE;fill-opacity:0.188235}
   ]]>
  </style>
 </defs>
 <g id="Layer_x0020_1">
  <metadata id="CorelCorpID_0Corel-Layer"/>
  <g id="_3135057744672">
   <path class="fil0" d="M21951.7 12329.8c-42.2,218.3 55.4,932.8 -304.5,2190 -394.2,1377 -1207.3,3104.2 -2202.7,4083.4 -553.6,544.6 -473.9,589.8 -1305.4,1239 -252.8,197.3 -471.5,349.1 -727.3,520 -1051.9,702.9 -2302.3,1194.6 -3586.9,1452 -2720.7,545.1 -5689.9,-149.3 -7887.9,-1801.2 -1463.2,-1099.7 -2634.4,-2544.2 -3321.3,-4262 -454.8,-1137.5 -903.4,-2986.6 -733.4,-4233 26.7,-196.2 0.1,-383.4 20.8,-577.9 14.6,-137.5 56.9,-444.7 77.5,-571 284.4,-1738.7 1215.8,-3923.8 2422.6,-5110.9 553.6,-544.6 473.9,-589.8 1305.4,-1239 1393.6,-1088 3673.1,-2106.9 5415.7,-2117.8 593.3,-3.7 1062.3,-67.8 1790.2,8.5 137,14.4 445.2,56.9 571.1,77.5 1738.7,284.4 3923.8,1215.8 5110.9,2422.6 229.9,233.7 376.2,262.2 661.3,635.8 396.7,519.8 468.1,454.9 1097.6,1396.9 702.9,1051.9 1194.6,2302.3 1452,3586.9 117.7,587.7 260.8,1699.1 144.5,2300.1zm-21951.7 -798.2c0,1805 102.9,2761.2 679.2,4409.6 307,878 498,1196.4 917.2,1976.4 168.8,314.1 362.6,579 568.9,877.9 2042.5,2958.9 5753.7,5059 9359.3,5059 1805,0 2761.2,-102.9 4409.6,-679.2 2524.3,-882.6 5045.8,-2908.1 6299.8,-5224.8 181.1,-334.5 325.4,-598.5 499.8,-947 637,-1273.1 1113.6,-3225.8 1113.6,-4673.7 0,-1805 -102.9,-2761.2 -679.2,-4409.6 -307,-878 -498,-1196.4 -917.2,-1976.4 -168.8,-314.1 -362.6,-579 -568.9,-877.9 -896.4,-1298.6 -2357.7,-2698 -3738.7,-3445.5 -793.4,-429.5 -1095.2,-604.3 -1972.3,-921.3 -2890.1,-1044.5 -6386.3,-925.6 -9087.1,404.7 -330.6,162.8 -633.3,330.8 -947.3,499.5 -1355.7,728.6 -2879.6,2153 -3751.6,3432.6 -1257.9,1846 -2185.3,4034.4 -2185.3,6495.6z"/>
   <path class="fil0" d="M9928.2 11930.7c-288,430.2 -3473,3388.3 -3950,3982.6 -1036.8,1291.7 604,3029 1955.9,2055.6l1333.1 -1311.1c452.9,-452.9 869.2,-869.2 1322.1,-1322.1 315.9,-315.9 1028,-1104.3 1334.6,-1309.6 375.1,251.2 3587.7,3653.4 3989.7,3942.8 1355.6,976.1 2991,-766.1 1955.9,-2055.6 -476.2,-593.3 -3662.8,-3553.7 -3950,-3982.6 288,-430.1 3473,-3388.3 3950,-3982.6 1034.6,-1288.9 -600.6,-3031.4 -1955.9,-2055.7 -403.4,290.5 -3614,3691.2 -3989.7,3942.8 -375.1,-251.2 -3587.7,-3653.4 -3989.7,-3942.8 -587,-422.6 -1417.8,-335.5 -1886.8,161.8 -475.5,504.3 -517.8,1334.9 -69.1,1893.9 476.2,593.3 3662.8,3553.7 3950,3982.6z"/>
  </g>
 </g>
</svg>
