<?xml version="1.0" encoding="iso-8859-1"?>
<!-- Generator: Adobe Illustrator 19.0.0, SVG Export Plug-In . SVG Version: 6.00 Build 0)  -->
<svg version="1.1" id="Capa_1" xmlns="http://www.w3.org/2000/svg" xmlns:xlink="http://www.w3.org/1999/xlink" x="0px" y="0px"
	 viewBox="0 0 512 512" style="enable-background:new 0 0 512 512;" xml:space="preserve">
<rect x="181" y="406" style="fill:#444444;" width="150" height="60"/>
<rect x="256" y="406" style="fill:#292929;" width="75" height="60"/>
<path style="fill:#5A5A5A;" d="M0,31v390h512V31H0z"/>
<rect x="256" y="31" style="fill:#444444;" width="256" height="390"/>
<path style="fill:#FFFDE5;" d="M30,61v330h452V61H30z"/>
<rect x="256" y="61" style="fill:#FEF8C9;" width="226" height="330"/>
<rect x="91" y="451" style="fill:#5A5A5A;" width="330" height="30"/>
<rect x="256" y="451" style="fill:#444444;" width="165" height="30"/>
<path style="fill:#FF4B00;" d="M256,91c-74.399,0-135,60.599-135,135c0,74.399,60.601,135,135,135s135-60.601,135-135
	C391,151.599,330.399,91,256,91z"/>
<path style="fill:#DD3400;" d="M391,226c0,74.399-60.601,135-135,135V91C330.399,91,391,151.599,391,226z"/>
<polygon style="fill:#FFFDE5;" points="277.301,226 319.6,268.299 298.299,289.6 256,247.299 213.701,289.6 192.4,268.299 
	234.699,226 192.4,183.699 213.701,162.4 256,204.699 298.299,162.4 319.6,183.699 "/>
<polygon style="fill:#FEF8C9;" points="277.301,226 319.6,268.299 298.299,289.6 256,247.299 256,204.699 298.299,162.4 
	319.6,183.699 "/>
<g>
</g>
<g>
</g>
<g>
</g>
<g>
</g>
<g>
</g>
<g>
</g>
<g>
</g>
<g>
</g>
<g>
</g>
<g>
</g>
<g>
</g>
<g>
</g>
<g>
</g>
<g>
</g>
<g>
</g>
</svg>
