<?xml version="1.0" encoding="UTF-8"?>
<!DOCTYPE svg PUBLIC "-//W3C//DTD SVG 1.1//EN" "http://www.w3.org/Graphics/SVG/1.1/DTD/svg11.dtd">
<!-- Creator: CorelDRAW 2019 (64 Bit) -->
<svg xmlns="http://www.w3.org/2000/svg" xml:space="preserve" width="27.0261mm" height="24.5964mm" version="1.1" style="shape-rendering:geometricPrecision; text-rendering:geometricPrecision; image-rendering:optimizeQuality; fill-rule:evenodd; clip-rule:evenodd"
viewBox="0 0 21881.5 19914.3"
 xmlns:xlink="http://www.w3.org/1999/xlink">
 <defs>
  <style type="text/css">
   <![CDATA[
    .fil1 {fill:#FEFEFE}
    .fil0 {fill:#FEFEFE;fill-rule:nonzero}
   ]]>
  </style>
    <clipPath id="id0">
     <path d="M-0 0l21881.5 0 0 19914.3 -21881.5 0 0 -19914.3z"/>
    </clipPath>
 </defs>
 <g id="Camada_x0020_1">
  <metadata id="CorelCorpID_0Corel-Layer"/>
  <g id="_889428496">
   <g style="clip-path:url(#id0)">
    <image x="-0" y="0" width="21881.5" height="19914.3" xlink:href="dscti_Images\dscti_ImgID1.png"/>
   </g>
  </g>
  <g id="_889431120">
   <path class="fil0" d="M4529.8 6728.6l-1211.3 6941.9 323.1 -6.6c1015.9,-19.9 1830.9,-323.1 2445.2,-912.1 614.3,-587.7 1021.1,-1458.6 1223.3,-2610.1 206.1,-1181.9 107.7,-2052.9 -296.5,-2610 -402.9,-559.8 -1123.5,-828.3 -2160.6,-808.4l-323.1 6.6 -0.1 -1.3zm-2143.3 -1699.3l2724.4 -53.2c1945.3,-37.2 3305.5,359 4083.3,1188.7 777.8,831 1013.1,2136.7 702,3921 -296.5,1702 -1007.8,3009 -2136.7,3921.1 -1127.5,909.5 -2616.7,1384.2 -4471.5,1420l-2724.4 53.2 1824.3 -10450.8 -1.4 -0.1z"/>
   <path class="fil0" d="M14642.9 6579.7l-319.1 1632.8c-264.6,-146.2 -527.9,-251.3 -797.7,-320.5 -268.6,-66.5 -542.5,-97.1 -823,-91.7 -339.1,6.6 -607.6,69.1 -800.4,191.5 -195.4,121 -312.4,299.2 -353.7,535.8 -50.5,287.2 264.6,563.8 946.7,832.3l0 0c844.3,336.4 1361.6,660.8 1551.7,974.6 188.8,313.8 234,757.9 132.9,1331 -132.9,767.2 -507.9,1366.8 -1123.5,1800.3 -613,432.1 -1420,656.9 -2413.3,676.8 -307.2,6.6 -632.9,-15.9 -971.9,-70.4 -341.8,-50.5 -690.1,-132.9 -1051.7,-242l324.4 -1775.1c297.9,191.5 613,339.1 946.7,440.1 333.7,101 666.1,147.6 1002.4,141 352.4,-6.6 639.5,-79.7 859,-215.4 220.7,-138.3 351.1,-325.7 392.3,-562.5 50.5,-291.2 -249.9,-562.5 -905.5,-811.1 -131.6,-50.5 -232.7,-86.4 -304.5,-114.3 -658.2,-263.3 -1095.5,-553.1 -1317.6,-865.6 -220.7,-311.1 -285.9,-720.6 -198.1,-1224.5 135.6,-776.5 491.9,-1386.8 1070.3,-1832.2 578.4,-446.8 1315,-676.8 2211.1,-694 327.1,-6.6 652.8,12 981.3,55.9 328.4,41.2 650.2,111.6 961.3,210.1l0 -2.8z"/>
   <path class="fil0" d="M20234 6644.8l-414.9 1692.6c-188.8,-102.4 -386.9,-184.8 -598.3,-240.6 -211.4,-55.9 -420.1,-83.8 -626.3,-79.7 -570.4,10.6 -1034.5,192.8 -1390.8,547.8 -356.3,352.4 -593,866.9 -710.1,1539.6 -132.9,761.9 -91.7,1343 121,1741.8 212.8,400.2 583.7,594.4 1110.3,583.7 265.9,-5.3 533.2,-43.9 800.4,-114.3 267.3,-70.4 533.2,-171.5 788.4,-303.1l-178.2 1683.3c-392.3,139.6 -776.5,246 -1151.5,317.8 -373.7,71.8 -743.3,113 -1102.3,119.7 -1063.7,19.9 -1842.8,-317.8 -2338.8,-1017.2 -496,-699.4 -636.9,-1662 -424.2,-2885.3 208.7,-1195.3 695.4,-2141.9 1461.2,-2837.3 765.8,-695.4 1707.2,-1054.4 2821.4,-1075.7 321.8,-6.6 634.2,15.9 937.4,70.4 303.1,51.8 601,137 897.5,254l-2.4 2.6z"/>
   <path class="fil1" d="M20817.7 4743.5l-231.3 5.3 -73.1 608.9 115.7 -2.7 37.2 -260.6 71.8 -1.3 107.7 258 130.3 -2.7 -122.3 -258c101,-2.7 171.5,-61.1 183.5,-178.2 26.6,-115.7 -62.5,-171.5 -220.7,-168.9l1.3 0.1zm-138.3 263.3l25.3 -159.6 86.4 -1.3c71.8,-1.3 115.7,12 117,69.1 1.3,43.9 -41.2,87.8 -127.7,89.1l-101 2.7 0.1 0z"/>
   <path class="fil1" d="M20765.8 5626.4c159.6,-4 287.2,-63.8 386.9,-182.2 127.7,-103.7 168.9,-220.7 164.8,-393.6 -4,-159.6 -50.5,-288.6 -182.2,-385.6 -103.7,-113 -235.4,-168.9 -393.6,-164.8 -159.6,4 -287.2,63.8 -400.2,182.2 -113,103.7 -154.2,235.4 -150.3,393.6 4,174.2 50.5,288.6 167.5,386.9 118.4,113 249.9,167.5 408.2,163.5l-1.3 -0.1zm297.9 -267.3c-70.4,87.8 -184.8,119.7 -300.5,122.3 -115.7,2.7 -216.7,-24 -305.8,-109.1 -89.1,-85.1 -134.3,-184.8 -137,-300.5 -2.7,-115.7 38.5,-218 123.6,-307.2 85.1,-89.1 184.8,-119.7 300.5,-122.3 115.7,-2.7 231.3,24 305.8,109.1 89.1,85.1 134.3,184.8 137,300.5 2.7,115.7 -38.5,218 -123.6,305.8l0 1.4z"/>
   <path class="fil0" d="M5573.6 14145.2c129,-85.1 277.9,167.5 369.6,283.2 389.6,486.7 1191.3,1545 2802.8,2185.9 1293.7,514.5 2259,321.8 2855.9,281.9 372.3,-25.3 702,-114.3 1034.5,-192.8 67.8,-15.9 199.4,-61.1 252.6,-29.2 679.5,401.6 -1906.7,1259.2 -4052.6,531.9 -1691.3,-616.9 -2820.2,-1971.8 -3183.1,-2543.6 -183.5,-289.9 -151.6,-470.7 -81.1,-517.2l1.4 -0.1z"/>
   <path class="fil0" d="M3168.3 14346c198.1,-142.3 448.1,249.9 601,426.8 643.5,747.2 1973.2,2374.7 4556.7,3297.5 2075.4,740.6 3591.3,380.3 4531.3,283.2 587.7,-61.1 1103.6,-220.7 1626.2,-364.3 106.4,-29.2 311.1,-107.7 398.9,-59.8 1096.9,595.7 -2943.8,2099.5 -6378.1,1070.4 -2709.8,-880.2 -4570,-2958.4 -5177.6,-3841.3 -305.8,-446.8 -267.3,-735.3 -158.2,-812.4l-0.1 -0.1z"/>
   <path class="fil0" d="M7256.9 13788.9c75.8,-54.5 170.2,95.7 228.7,163.5 244.7,285.9 748.6,906.8 1731.2,1261.8 789.7,284.5 1368.1,148.9 1725.8,113 224.7,-22.6 420.1,-82.4 619.6,-137 41.2,-10.6 118.4,-39.9 151.6,-22.6 417.5,228.7 -1123.5,796.4 -2430.5,400.2 -1030.4,-339.1 -1737.8,-1132.9 -1967.8,-1469.3 -115.7,-170.2 -101,-280.5 -59.8,-309.8l1.3 0z"/>
   <path class="fil0" d="M8794 3473.7c63.8,141 324.4,5.3 464,-42.6 587.7,-204.8 1830.8,-674.1 3536.8,-359 1369.5,252.6 2084.8,929.4 2567.5,1281.7 301.8,219.4 533.2,470.7 773.9,714 49.2,50.5 137,156.9 199.4,159.6 788.4,21.3 -945.3,-2080.9 -3148.5,-2606.1 -1760.4,-377.6 -3437,170.2 -4048.6,460 -308.5,147.6 -378.9,317.8 -344.3,394.9l-0.1 -2.6z"/>
   <path class="fil0" d="M6488.4 2117.5c101,223.4 513.2,8 733.9,-67.8 930.8,-324.4 2897.2,-1066.4 5595,-567.7 2167.3,400.2 3298.8,1470.6 4063.4,2027.7 478.7,347 844.3,743.3 1224.6,1130.2 78.5,79.7 215.4,248.6 315.1,251.3 1248.6,34.6 -1494.5,-3292.2 -4982.1,-4124.5 -2785.6,-597 -5438.1,268.6 -6406.1,728.6 -489.3,234 -599.6,502.6 -543.8,623.6l0.1 -1.3z"/>
   <path class="fil0" d="M10035.8 4856.5c43.9,89.1 210.1,-4 299.2,-38.5 376.3,-146.2 1168.7,-478.7 2279,-316.5 892.1,130.3 1370.8,551.8 1691.3,767.2 200.8,135.6 356.3,291.2 517.2,444.1 33.3,31.9 91.7,98.4 132.9,98.4 510.6,-4 -660.8,-1324.3 -2098.2,-1611.5 -1147.5,-202.1 -2219.2,191.5 -2607.4,393.6 -196.8,102.4 -238,214.1 -212.8,263.3l-1.2 0z"/>
   <path class="fil0" d="M16451.3 16114.4l877.6 0 0 127.7 -877.6 0 0 2015.7c0,243.3 41.2,414.9 123.6,518.6 43.9,57.2 99.7,102.4 172.9,135.6 70.4,31.9 147.6,47.8 230,47.8 102.4,0 188.8,-21.3 258,-63.8 67.8,-42.6 143.6,-119.7 226.1,-234l51.8 42.6c-75.8,139.6 -182.2,242 -319.1,309.8 -137,67.8 -308.5,101 -511.9,101 -271.2,0 -468.1,-53.2 -593,-159.6 -66.5,-55.9 -110.4,-121 -131.6,-199.4 -19.9,-77.1 -30.6,-215.4 -30.6,-416.2l0 -2099.5 -369.6 0 0 -53.2c148.9,-46.6 288.6,-141 414.9,-277.9 77.1,-85.1 138.3,-170.2 183.5,-254 46.6,-83.8 90.4,-194.2 131.6,-327.1l34.6 -114.3 129 0 0 898.9 0 1.2z"/>
   <path class="fil0" d="M18592 15630.4c-89.1,0 -163.5,-27.9 -223.4,-86.4 -58.5,-57.2 -87.8,-130.3 -87.8,-218 0,-85.1 29.2,-156.9 89.1,-215.4 59.8,-58.5 134.3,-87.8 222.1,-87.8 87.8,0 162.3,29.2 222.1,87.8 59.8,58.5 89.1,131.6 89.1,215.4 0,87.8 -29.2,160.9 -89.1,218 -58.5,57.2 -132.9,86.4 -223.4,86.4l1.3 0z"/>
   <path class="fil0" d="M17928.4 16192.8l998.5 -127.7 0 1990.4 4 261.9c0,155.5 9.3,269.9 26.6,341.8 18.6,71.8 54.5,131.6 107.7,180.8 65.2,62.5 183.5,110.4 356.3,141l0 70.4 -1530.4 0 0 -70.4c139.6,-18.6 238,-43.9 297.9,-78.5 59.8,-33.3 109.1,-89.1 144.9,-170.2 26.6,-51.8 43.9,-131.6 54.5,-238 10.6,-106.4 15.9,-260.6 15.9,-462.7l0 -848.3c0,-235.4 -5.3,-402.9 -17.2,-497.3 -10.6,-95.7 -35.9,-172.9 -75.8,-232.7 -38.5,-63.8 -87.8,-110.4 -142.3,-139.6 -55.9,-27.9 -134.3,-46.6 -238,-53.2l0 -70.4 -2.6 2.7z"/>
  </g>
 </g>
</svg>
