<?xml version="1.0" encoding="UTF-8"?>
<!DOCTYPE svg PUBLIC "-//W3C//DTD SVG 1.1//EN" "http://www.w3.org/Graphics/SVG/1.1/DTD/svg11.dtd">
<!-- Creator: CorelDRAW 2019 (64-Bit) -->
<svg xmlns="http://www.w3.org/2000/svg" xml:space="preserve" width="25.6337mm" height="23.2069mm" version="1.1" style="shape-rendering:geometricPrecision; text-rendering:geometricPrecision; image-rendering:optimizeQuality; fill-rule:evenodd; clip-rule:evenodd"
viewBox="0 0 1560.9 1413.1"
 xmlns:xlink="http://www.w3.org/1999/xlink"
 xmlns:xodm="http://www.corel.com/coreldraw/odm/2003">
 <defs>
  <style type="text/css">
   <![CDATA[
    .fil1 {fill:#FEFEFE}
    .fil0 {fill:#FEFEFE;fill-rule:nonzero}
   ]]>
  </style>
 </defs>
 <g id="Layer_x0020_1">
  <metadata id="CorelCorpID_0Corel-Layer"/>
  <path class="fil0" d="M298.3 463.8l-91.1 522.1 24.3 -0.5c76.4,-1.5 137.7,-24.3 183.9,-68.6 46.2,-44.2 76.8,-109.7 92,-196.3 15.5,-88.9 8.1,-154.4 -22.3,-196.3 -30.3,-42.1 -84.5,-62.3 -162.5,-60.8l-24.3 0.5zm-161.2 -127.8l204.9 -4c146.3,-2.8 248.6,27 307.1,89.4 58.5,62.5 76.2,160.7 52.8,294.9 -22.3,128 -75.8,226.3 -160.7,294.9 -84.8,68.4 -196.8,104.1 -336.3,106.8l-204.9 4 137.2 -786z"/>
  <path class="fil0" d="M1058.9 452.6l-24 122.8c-19.9,-11 -39.7,-18.9 -60,-24.1 -20.2,-5 -40.8,-7.3 -61.9,-6.9 -25.5,0.5 -45.7,5.2 -60.2,14.4 -14.7,9.1 -23.5,22.5 -26.6,40.3 -3.8,21.6 19.9,42.4 71.2,62.6l0 0c63.5,25.3 102.4,49.7 116.7,73.3 14.2,23.6 17.6,57 10,100.1 -10,57.7 -38.2,102.8 -84.5,135.4 -46.1,32.5 -106.8,49.4 -181.5,50.9 -23.1,0.5 -47.6,-1.2 -73.1,-5.3 -25.7,-3.8 -51.9,-10 -79.1,-18.2l24.4 -133.5c22.4,14.4 46.1,25.5 71.2,33.1 25.1,7.6 50.1,11.1 75.4,10.6 26.5,-0.5 48.1,-6 64.6,-16.2 16.6,-10.4 26.4,-24.5 29.5,-42.3 3.8,-21.9 -18.8,-42.3 -68.1,-61 -9.9,-3.8 -17.5,-6.5 -22.9,-8.6 -49.5,-19.8 -82.4,-41.6 -99.1,-65.1 -16.6,-23.4 -21.5,-54.2 -14.9,-92.1 10.2,-58.4 37,-104.3 80.5,-137.8 43.5,-33.6 98.9,-50.9 166.3,-52.2 24.6,-0.5 49.1,0.9 73.8,4.2 24.7,3.1 48.9,8.4 72.3,15.8z"/>
  <path class="fil0" d="M1479.4 457.5l-31.2 127.3c-14.2,-7.7 -29.1,-13.9 -45,-18.1 -15.9,-4.2 -31.6,-6.3 -47.1,-6 -42.9,0.8 -77.8,14.5 -104.6,41.2 -26.8,26.5 -44.6,65.2 -53.4,115.8 -10,57.3 -6.9,101 9.1,131 16,30.1 43.9,44.7 83.5,43.9 20,-0.4 40.1,-3.3 60.2,-8.6 20.1,-5.3 40.1,-12.9 59.3,-22.8l-13.4 126.6c-29.5,10.5 -58.4,18.5 -86.6,23.9 -28.1,5.4 -55.9,8.5 -82.9,9 -80,1.5 -138.6,-23.9 -175.9,-76.5 -37.3,-52.6 -47.9,-125 -31.9,-217 15.7,-89.9 52.3,-161.1 109.9,-213.4 57.6,-52.3 128.4,-79.3 212.2,-80.9 24.2,-0.5 47.7,1.2 70.5,5.3 22.8,3.9 45.2,10.3 67.5,19.1z"/>
  <path class="fil1" d="M1523.3 314.5l-17.4 0.4 -5.5 45.8 8.7 -0.2 2.8 -19.6 5.4 -0.1 8.1 19.4 9.8 -0.2 -9.2 -19.4c7.6,-0.2 12.9,-4.6 13.8,-13.4 2,-8.7 -4.7,-12.9 -16.6,-12.7zm-10.4 19.8l1.9 -12 6.5 -0.1c5.4,-0.1 8.7,0.9 8.8,5.2 0.1,3.3 -3.1,6.6 -9.6,6.7l-7.6 0.2z"/>
  <path class="fil1" d="M1519.4 380.9c12,-0.3 21.6,-4.8 29.1,-13.7 9.6,-7.8 12.7,-16.6 12.4,-29.6 -0.3,-12 -3.8,-21.7 -13.7,-29 -7.8,-8.5 -17.7,-12.7 -29.6,-12.4 -12,0.3 -21.6,4.8 -30.1,13.7 -8.5,7.8 -11.6,17.7 -11.3,29.6 0.3,13.1 3.8,21.7 12.6,29.1 8.9,8.5 18.8,12.6 30.7,12.3zm22.4 -20.1c-5.3,6.6 -13.9,9 -22.6,9.2 -8.7,0.2 -16.3,-1.8 -23,-8.2 -6.7,-6.4 -10.1,-13.9 -10.3,-22.6 -0.2,-8.7 2.9,-16.4 9.3,-23.1 6.4,-6.7 13.9,-9 22.6,-9.2 8.7,-0.2 17.4,1.8 23,8.2 6.7,6.4 10.1,13.9 10.3,22.6 0.2,8.7 -2.9,16.4 -9.3,23z"/>
  <path class="fil0" d="M376.8 1021.6c9.7,-6.4 20.9,12.6 27.8,21.3 29.3,36.6 89.6,116.2 210.8,164.4 97.3,38.7 169.9,24.2 214.8,21.2 28,-1.9 52.8,-8.6 77.8,-14.5 5.1,-1.2 15,-4.6 19,-2.2 51.1,30.2 -143.4,94.7 -304.8,40 -127.2,-46.4 -212.1,-148.3 -239.4,-191.3 -13.8,-21.8 -11.4,-35.4 -6.1,-38.9z"/>
  <path class="fil0" d="M195.9 1036.7c14.9,-10.7 33.7,18.8 45.2,32.1 48.4,56.2 148.4,178.6 342.7,248 156.1,55.7 270.1,28.6 340.8,21.3 44.2,-4.6 83,-16.6 122.3,-27.4 8,-2.2 23.4,-8.1 30,-4.5 82.5,44.8 -221.4,157.9 -479.7,80.5 -203.8,-66.2 -343.7,-222.5 -389.4,-288.9 -23,-33.6 -20.1,-55.3 -11.9,-61.1z"/>
  <path class="fil0" d="M503.4 994.8c5.7,-4.1 12.8,7.2 17.2,12.3 18.4,21.5 56.3,68.2 130.2,94.9 59.4,21.4 102.9,11.2 129.8,8.5 16.9,-1.7 31.6,-6.2 46.6,-10.3 3.1,-0.8 8.9,-3 11.4,-1.7 31.4,17.2 -84.5,59.9 -182.8,30.1 -77.5,-25.5 -130.7,-85.2 -148,-110.5 -8.7,-12.8 -7.6,-21.1 -4.5,-23.3z"/>
  <path class="fil0" d="M619 219c4.8,10.6 24.4,0.4 34.9,-3.2 44.2,-15.4 137.7,-50.7 266,-27 103,19 156.8,69.9 193.1,96.4 22.7,16.5 40.1,35.4 58.2,53.7 3.7,3.8 10.3,11.8 15,12 59.3,1.6 -71.1,-156.5 -236.8,-196 -132.4,-28.4 -258.5,12.8 -304.5,34.6 -23.2,11.1 -28.5,23.9 -25.9,29.7z"/>
  <path class="fil0" d="M445.6 117c7.6,16.8 38.6,0.6 55.2,-5.1 70,-24.4 217.9,-80.2 420.8,-42.7 163,30.1 248.1,110.6 305.6,152.5 36,26.1 63.5,55.9 92.1,85 5.9,6 16.2,18.7 23.7,18.9 93.9,2.6 -112.4,-247.6 -374.7,-310.2 -209.5,-44.9 -409,20.2 -481.8,54.8 -36.8,17.6 -45.1,37.8 -40.9,46.9z"/>
  <path class="fil0" d="M712.4 323c3.3,6.7 15.8,-0.3 22.5,-2.9 28.3,-11 87.9,-36 171.4,-23.8 67.1,9.8 103.1,41.5 127.2,57.7 15.1,10.2 26.8,21.9 38.9,33.4 2.5,2.4 6.9,7.4 10,7.4 38.4,-0.3 -49.7,-99.6 -157.8,-121.2 -86.3,-15.2 -166.9,14.4 -196.1,29.6 -14.8,7.7 -17.9,16.1 -16,19.8z"/>
  <path class="fil0" d="M1180.8 1175.6l75.1 -9.6 0 149.7 0.3 19.7c0,11.7 0.7,20.3 2,25.7 1.4,5.4 4.1,9.9 8.1,13.6 4.9,4.7 13.8,8.3 26.8,10.6l0 5.3 -115.1 0 0 -5.3c10.5,-1.4 17.9,-3.3 22.4,-5.9 4.5,-2.5 8.2,-6.7 10.9,-12.8 2,-3.9 3.3,-9.9 4.1,-17.9 0.8,-8 1.2,-19.6 1.2,-34.8l0 -63.8c0,-17.7 -0.4,-30.3 -1.3,-37.4 -0.8,-7.2 -2.7,-13 -5.7,-17.5 -2.9,-4.8 -6.6,-8.3 -10.7,-10.5 -4.2,-2.1 -10.1,-3.5 -17.9,-4l0 -5.3zm49.9 -42.3c-6.7,0 -12.3,-2.1 -16.8,-6.5 -4.4,-4.3 -6.6,-9.8 -6.6,-16.4 0,-6.4 2.2,-11.8 6.7,-16.2 4.5,-4.4 10.1,-6.6 16.7,-6.6 6.6,0 12.2,2.2 16.7,6.6 4.5,4.4 6.7,9.9 6.7,16.2 0,6.6 -2.2,12.1 -6.7,16.4 -4.4,4.3 -10,6.5 -16.8,6.5zm143.5 36.4l66 0 0 9.6 -66 0 0 151.6c0,18.3 3.1,31.2 9.3,39 3.3,4.3 7.5,7.7 13,10.2 5.3,2.4 11.1,3.6 17.3,3.6 7.7,0 14.2,-1.6 19.4,-4.8 5.1,-3.2 10.8,-9 17,-17.6l3.9 3.2c-5.7,10.5 -13.7,18.2 -24,23.3 -10.3,5.1 -23.2,7.6 -38.5,7.6 -20.4,0 -35.2,-4 -44.6,-12 -5,-4.2 -8.3,-9.1 -9.9,-15 -1.5,-5.8 -2.3,-16.2 -2.3,-31.3l0 -157.9 -27.8 0 0 -4c11.2,-3.5 21.7,-10.6 31.2,-20.9 5.8,-6.4 10.4,-12.8 13.8,-19.1 3.5,-6.3 6.8,-14.6 9.9,-24.6l2.6 -8.6 9.7 0 0 67.6z"/>
 </g>
</svg>
