<?xml version="1.0" encoding="iso-8859-1"?>
<!-- Generator: Adobe Illustrator 19.0.0, SVG Export Plug-In . SVG Version: 6.00 Build 0)  -->
<svg version="1.1" id="Capa_1" xmlns="http://www.w3.org/2000/svg" xmlns:xlink="http://www.w3.org/1999/xlink" x="0px" y="0px"
	 viewBox="0 0 512 512" style="enable-background:new 0 0 512 512;" xml:space="preserve">
<circle style="fill:#00D4D1;" cx="256" cy="256" r="256"/>
<path style="fill:#009CA0;" d="M505.603,313.087L373.795,181.808c-15.156-16.655-36.988-27.123-61.283-27.123
	c-6.501,0-12.819,0.77-18.887,2.19l-27.566-27.552c-17.223-18.749-41.932-30.508-69.4-30.508c-52.062,0-94.266,42.204-94.266,94.266
	v19.92c-31.523,8.297-54.95,37.118-54.95,71.152l0,0c0,20.922,8.858,39.871,23.002,53.298l174.392,174.293
	C248.54,511.902,252.258,512,256,512C377.761,512,479.66,426.991,505.603,313.087z"/>
<path style="fill:#FFFFFF;" d="M402.399,235.238h-6.526c-1.625-44.348-38.068-79.808-82.814-79.808
	c-9.746,0-19.093,1.696-27.78,4.786c-13.541-35.46-47.856-60.656-88.073-60.656c-52.062,0-94.266,42.204-94.266,94.266v19.92
	c-31.523,8.296-54.95,37.118-54.95,71.152l0,0c0,40.457,33.102,73.559,73.559,73.559h280.849c33.885,0,61.609-27.724,61.609-61.609
	l0,0C464.009,262.962,436.285,235.238,402.399,235.238z"/>
<path style="fill:#FFF4AA;" d="M464.01,296.85c0,33.88-27.73,61.61-61.61,61.61H256v-238.3c13.02,10.41,23.23,24.21,29.28,40.06
	c8.69-3.09,18.03-4.79,27.78-4.79c44.75,0,81.19,35.46,82.81,79.81h6.53c16.94,0,32.34,6.93,43.51,18.1
	C457.08,264.5,464.01,279.9,464.01,296.85z"/>
<polygon style="fill:#006EF5;" points="256,233.15 192.914,297.34 221.967,297.34 221.967,358.457 290.033,358.457 290.033,297.34 
	319.086,297.34 "/>
<polygon style="fill:#0043A3;" points="319.09,297.34 290.03,297.34 290.03,358.46 256,358.46 256,233.15 "/>
<g>
</g>
<g>
</g>
<g>
</g>
<g>
</g>
<g>
</g>
<g>
</g>
<g>
</g>
<g>
</g>
<g>
</g>
<g>
</g>
<g>
</g>
<g>
</g>
<g>
</g>
<g>
</g>
<g>
</g>
</svg>
