<?xml version="1.0" encoding="iso-8859-1"?>
<!-- Generator: Adobe Illustrator 21.0.0, SVG Export Plug-In . SVG Version: 6.00 Build 0)  -->
<svg xmlns="http://www.w3.org/2000/svg" xmlns:xlink="http://www.w3.org/1999/xlink" version="1.1" id="Capa_1" x="0px" y="0px" viewBox="0 0 512 512" style="enable-background:new 0 0 512 512;" xml:space="preserve" width="512" height="512">
<g>
	<g>
		<g>
			<g>
				<g>
					<g>
						<g>
							<g>
								<g>
									<g>
										<g>
											<g>
												<circle style="fill:#FF641A;" cx="256" cy="256" r="256"/>
											</g>
										</g>
									</g>
								</g>
							</g>
						</g>
					</g>
				</g>
			</g>
		</g>
	</g>
	<path style="fill:#F03800;" d="M512,256c0-10.445-0.641-20.739-1.857-30.857L380,95L132,435l71.63,71.63   c16.906,3.515,34.421,5.37,52.37,5.37C397.385,512,512,397.385,512,256z"/>
	<g>
		<polygon style="fill:#FFFFFF;" points="188,95 132,151 132,435 380,435 380,95   "/>
	</g>
	<g>
		<rect x="255.905" y="95" style="fill:#E9EDF5;" width="124.095" height="340"/>
	</g>
	<g>
		<polygon style="fill:#FFDA00;" points="188,151 188,95 132,151   "/>
	</g>
	<g>
		<rect x="154" y="213" style="fill:#9196AA;" width="37" height="37"/>
	</g>
	<g>
		<rect x="213" y="213" style="fill:#9196AA;" width="142.055" height="37"/>
	</g>
	<g>
		<rect x="255.905" y="213" style="fill:#7E8596;" width="99.15" height="37"/>
	</g>
	<g>
		<rect x="213" y="281.667" style="fill:#9196AA;" width="142.055" height="37"/>
	</g>
	<g>
		<rect x="255.905" y="281.667" style="fill:#7E8596;" width="99.15" height="37"/>
	</g>
	<g>
		<rect x="154" y="350.333" style="fill:#9196AA;" width="37" height="37"/>
	</g>
	<g>
		<rect x="213" y="350.333" style="fill:#9196AA;" width="142.055" height="37"/>
	</g>
	<g>
		<rect x="255.905" y="350.333" style="fill:#7E8596;" width="99.15" height="37"/>
	</g>
	<g>
		<polygon style="fill:#555A66;" points="173.628,328.758 140.144,295.273 161.356,274.06 172.371,285.075 206.801,246.438     229.199,266.396   "/>
	</g>
</g>















</svg>
