<?xml version="1.0" encoding="iso-8859-1"?>
<!-- Generator: Adobe Illustrator 21.0.0, SVG Export Plug-In . SVG Version: 6.00 Build 0)  -->
<svg xmlns="http://www.w3.org/2000/svg" xmlns:xlink="http://www.w3.org/1999/xlink" version="1.1" id="Capa_1" x="0px" y="0px" viewBox="0 0 512 512" style="enable-background:new 0 0 512 512;" xml:space="preserve" width="512" height="512">
<g>
	<g>
		<g>
			<g>
				<g>
					<g>
						<g>
							<g>
								<g>
									<g>
										<g>
											<circle style="fill:#00C8C8;" cx="256" cy="256" r="256"/>
										</g>
									</g>
								</g>
							</g>
						</g>
					</g>
				</g>
			</g>
		</g>
	</g>
	<path style="fill:#00B5B0;" d="M512,256c0-11.765-0.811-23.338-2.347-34.682L385.673,97.339l-21.063,32.938l-45.944-45.943   l-192.34,330.328l94.992,94.992C232.662,511.189,244.235,512,256,512C397.385,512,512,397.385,512,256z"/>
	<g>
		<rect x="126.327" y="97.339" style="fill:#495F7A;" width="259.346" height="317.322"/>
	</g>
	<g>
		<rect x="255.905" y="97.339" style="fill:#31465B;" width="129.769" height="317.322"/>
	</g>
	<g>
		<rect x="160.333" y="97.339" style="fill:#FFFFFF;" width="191.333" height="284.067"/>
	</g>
	<g>
		<rect x="255.905" y="97.339" style="fill:#E9EDF5;" width="95.762" height="284.067"/>
	</g>
	<g>
		<rect x="219.033" y="284.377" style="fill:#DCE1EB;" width="73.935" height="73.934"/>
	</g>
	<g>
		<rect x="255.905" y="284.377" style="fill:#CDD2E1;" width="37.063" height="73.935"/>
	</g>
	<g>
		<polygon style="fill:#FF583E;" points="239.166,360.222 205.501,326.556 226.714,305.343 239.166,317.795 285.286,271.674     306.499,292.887   "/>
	</g>
	<g>
		<polygon style="fill:#EF2A1B;" points="285.286,271.674 255.905,301.056 255.905,343.482 306.499,292.887   "/>
	</g>
	<g>
		<rect x="193.333" y="84.333" style="fill:#FF583E;" width="125.333" height="46.667"/>
	</g>
	<g>
		<rect x="255.905" y="84.333" style="fill:#EF2A1B;" width="62.762" height="46.667"/>
	</g>
	<g>
		<rect x="187.167" y="169" style="fill:#DCE1EB;" width="137.667" height="30"/>
	</g>
	<g>
		<rect x="255.905" y="169" style="fill:#CDD2E1;" width="68.928" height="30"/>
	</g>
	<g>
		<rect x="187.167" y="224.372" style="fill:#DCE1EB;" width="137.667" height="30"/>
	</g>
	<g>
		<rect x="255.905" y="224.372" style="fill:#CDD2E1;" width="68.928" height="30"/>
	</g>
</g>















</svg>
