<?xml version="1.0" encoding="iso-8859-1"?>
<!-- Generator: Adobe Illustrator 21.0.0, SVG Export Plug-In . SVG Version: 6.00 Build 0)  -->
<svg xmlns="http://www.w3.org/2000/svg" xmlns:xlink="http://www.w3.org/1999/xlink" version="1.1" id="Capa_1" x="0px" y="0px" viewBox="0 0 512 512" style="enable-background:new 0 0 512 512;" xml:space="preserve" width="512" height="512">
<g>
	<g>
		<g>
			<g>
				<g>
					<g>
						<g>
							<g>
								<g>
									<g>
										<g>
											<g>
												<circle style="fill:#FFDA00;" cx="256" cy="256" r="256"/>
											</g>
										</g>
									</g>
								</g>
							</g>
						</g>
					</g>
				</g>
			</g>
		</g>
	</g>
	<path style="fill:#FFB000;" d="M510.407,284.546L306.036,80.175l-99.337,104.638l59.273,59.272l-38.951,159.355L143,447.422   l58.812,58.813C219.281,509.999,237.406,512,256,512C387.734,512,496.209,412.493,510.407,284.546z"/>
	<g>
		<rect x="223" y="148.12" style="fill:#FFFFFF;" width="66" height="144.88"/>
	</g>
	<g>
		<rect x="255.905" y="148.12" style="fill:#E9EDF5;" width="33.095" height="144.88"/>
	</g>
	<g>
		<circle style="fill:#555A66;" cx="256" cy="132.146" r="72.146"/>
	</g>
	<g>
		<path style="fill:#353D44;" d="M256,60c-0.032,0-0.063,0.002-0.095,0.002V204.29c0.032,0,0.063,0.002,0.095,0.002    c39.845,0,72.146-32.301,72.146-72.146S295.845,60,256,60z"/>
	</g>
	<g>
		<rect x="201" y="262" style="fill:#555A66;" width="110" height="57"/>
	</g>
	<g>
		<rect x="255.905" y="262" style="fill:#353D44;" width="55.095" height="57"/>
	</g>
	<g>
		<rect x="171.733" y="319" style="fill:#353D44;" width="168.534" height="64.211"/>
	</g>
	<g>
		<rect x="255.905" y="319" style="fill:#333940;" width="84.362" height="64.211"/>
	</g>
	<g>
		<rect x="143" y="383.211" style="fill:#555A66;" width="226" height="64.211"/>
	</g>
	<g>
		<rect x="255.905" y="383.211" style="fill:#353D44;" width="113.095" height="64.211"/>
	</g>
</g>















</svg>
