<?xml version="1.0" encoding="UTF-8"?>
<!DOCTYPE svg PUBLIC "-//W3C//DTD SVG 1.1//EN" "http://www.w3.org/Graphics/SVG/1.1/DTD/svg11.dtd">
<!-- Creator: CorelDRAW 2019 (64-Bit) -->
<svg xmlns="http://www.w3.org/2000/svg" xml:space="preserve" width="109.209mm" height="29.3336mm" version="1.1" style="shape-rendering:geometricPrecision; text-rendering:geometricPrecision; image-rendering:optimizeQuality; fill-rule:evenodd; clip-rule:evenodd"
viewBox="0 0 132981.6 35718.8"
 xmlns:xlink="http://www.w3.org/1999/xlink"
 xmlns:xodm="http://www.corel.com/coreldraw/odm/2003">
 <defs>
  <style type="text/css">
   <![CDATA[
    .fil2 {fill:#F3801F}
    .fil0 {fill:white}
    .fil1 {fill:#221E1F;fill-opacity:0.400000}
   ]]>
  </style>
 </defs>
 <g id="Layer_x0020_1">
  <metadata id="CorelCorpID_0Corel-Layer"/>
  <g id="_2437919850576">
   <g>
    <path class="fil0" d="M14086.5 21389l28848.5 14329.9 -12597 -241.1 -30337.9 -14750.7 14086.5 661.9zm53118.5 -18537.9l0 0c45238.5,4751.9 63883.1,17664.2 37939.8,21955.4l8394.8 3943.9c22435,-5441.3 23209.8,-11506 13616.6,-16650.1 -16849.2,-9038.8 -57739.6,-13841.9 -78085.5,-11519.2 -1761.2,200.4 -3456.3,455.4 -5066.9,768 -2376.7,463.1 -299.7,573.4 3100.7,601.2 7055.6,57.4 13082.2,164.3 20100.6,900.8zm32547 22607.5l0 0c-3427.2,326.3 -7333.8,559.4 -11764.8,672.6l11664.4 5397.6c3128.9,-512 6040.7,-1052.1 8745.4,-1614.9l-8644.9 -4455.4zm-17039.4 754.2l0 0c-3699.4,18.6 -7691.9,-29.8 -12011.5,-162.4l13767.3 7549.8c3548.4,-400.7 6901.7,-833.3 10077.5,-1289.5l-11833.3 -6097.9zm-21123.4 -537.8l0 0c-4838.1,-245.8 -9989.9,-574.5 -15504.9,-1005.9l22251.5 10444c3551.6,-270.9 6953.3,-570.6 10226.4,-891.6l-16973 -8546.5zm-36939.2 -2024.1l0 0 24785.6 11585.6 11512.5 -210.9 -21398.8 -10373.8 -14899.3 -1000.9z"/>
    <path class="fil1" d="M80569.4 28732.9l-339.4 -276.4 -138.8 -214.4c-56,54.1 -112.3,109.6 -170,163.4l-510.1 424.8 -550 380.4c-253.5,148.7 -503.6,286.8 -770.8,413.8 -299.9,131.4 -599.6,241.2 -915.6,335.3 -256.2,68.9 -509,125.7 -771,171.2l-807.9 86c-366.5,15 -732.1,8.3 -1100.3,-8.2l-613.8 -72.5 -280.7 -57.7 -263.6 -77.7 -247.2 -97.3 -238.8 -130.2 -406.6 -331.2 -261.7 -401.1 -61.1 -299.9 -338.6 -276.7 -261.8 -400.6 -88.6 -433 64.2 -408.3 171.2 -347.9 234.2 -284.4 272.2 -223.6 302.5 -161.3 401.1 -102.3 426.6 -14.5 434.3 72.8 419.1 174.6 374.7 290.5 276.9 415.2 79.4 324.8 114.7 89.3c151.4,-169.1 286,-346.2 419.1,-529.8 733,-1076.1 1305.6,-2238.6 1848.2,-3415.6 392.2,-872.7 758.5,-1752.4 1107.4,-2642.8 255.1,-665.9 501.2,-1336.4 738.4,-2010l-632.6 1 389.7 -977.4 -1050 0.9 928.8 -2336.8 688.1 163.2c274.2,55.9 541,92.8 816.2,30.9 56.6,-78.9 101.8,-166.3 151,-251.5 201.6,-344.4 420.8,-662.4 662.4,-979.7 238.7,-291.4 483.7,-567.6 745.9,-837.8 219.9,-212.2 443.2,-414.5 674.3,-612.9 251.1,-200.6 505.9,-387.7 769.9,-571.7l562.7 -345 604.1 -304.2 642.1 -258.6 677.6 -201.4 712.7 -137.4 368.6 -41.8 375.3 -22 383.1 -1.2 390 19.6 397.7 43.5 400.7 66.7 409 90.1 424.8 119.8 258.9 104 231.8 146.4 191.7 180.7 146 201.3 103.1 214.4 65.5 214.3 13.9 77.7 142.2 89.4 190.3 180 53.3 74.2c310.9,-249.5 638.3,-478.8 978.6,-694.7l585.8 -326.8 620.9 -282.6 660.3 -230.1 696 -171.7 360.1 -60.6 367.9 -40.5 375.8 -22.2 383.1 -1.8 390.3 20.5 396.4 42.6c485,79.8 959,173.3 1421.3,347l179.9 94.2 158.2 115.4 137.7 129.8 88.3 113c375.3,-147.2 790,-165.1 1191.1,-151.2l225.3 25.2 430.3 100.2 203.4 77.7 193.7 92.9 184.6 113.4 173.4 127.9 160.2 143.6 141.1 156 121.8 169 97 178.8 74.4 193 26.2 105.8 39.7 29.6 161.1 144.9 141.3 155.7 120.4 168.6 99.5 180 73.3 191.1 47.5 198.6 21.4 204.1 -5.1 206.2 -27.5 204 -53.9 198.6 -76.3 191.2 -100.2 181.6 -120.4 171.6 -140.8 160.7 -158.2 148.4 -360.1 261.3 -195.1 110.4 -203.4 93.6 -310.5 97.5 -157.8 356c387.8,-51.1 776.1,-104.7 1164,-158.9l-2137.6 4814.9 1032 579.5 -376.6 393.2 1036.7 583.8 -983.8 1027.7 -580.7 528.5 -567.3 442.6 -557.3 355.3 -277.9 146.2 -281 127.2 -284.7 107.8 -286.4 88.9 -290.9 69.7 -293.8 50.2 -294.9 30.4 -549.1 3.7 -470.4 -53.7 -426.9 -110 -197.5 -81.9 -184.6 -98.1 -169.7 -119 -152 -136.7 -132.4 -153.9 -110.9 -169.5 -85.2 -183.4 -61.1 -194.1 -11.2 -64 -108.9 -75.3 -152.1 -136.1 -132.2 -155.4 -109.3 -168.4 -86.6 -184.6 -61.4 -192.9 -36 -201.6 -12.8 -205.5c3.7,-136.5 10.1,-259.1 34.2,-395.3 121.2,-537.8 335.6,-1052.7 563.1,-1556.8 427.5,-916.3 868.1,-1827.1 1300.7,-2743.7l-147 0 106.5 -975.8 -504.2 -0.7 -181.9 895.2 -1474.9 0.7c-307.8,822.8 -596.4,1650 -909,2469.1 -285.8,755 -572.6,1509.6 -878.3,2254.4 -294.9,700.8 -610.2,1381.9 -966.8,2052.6 -161.2,288.3 -325.1,570.4 -498.2,850.4 -180.8,276.4 -367.1,545.8 -562,810l-416.4 510.8c-223.3,245.7 -448.6,478.2 -689.9,706.1l-509.4 425 -552.5 379.1c-252.8,150.4 -505.3,288.7 -769.7,414.9 -302.3,131.5 -599.6,241.1 -914.8,335.7 -257.3,68.6 -511.4,125.2 -771,170.8 -340.5,51 -672.6,80.6 -1013.7,94.4 -298.3,2.7 -595,-3.7 -895.6,-17.3l-613.2 -71.4 -281.3 -57.7 -263.4 -77.7 -247.3 -98.4 -238.7 -129.8 -406.8 -331.2 -260.7 -401.8 -61.7 -298.8zm1201.7 -2650.9l0 0 414.4 71.4 420.5 173.6 374.6 291.1 276.3 415.2 79.8 324.8 114.3 88.3c150,-167.7 285.4,-344.1 420.8,-529.8 731.3,-1073.4 1304.5,-2238.1 1847.1,-3416.3 391.6,-870.8 757.8,-1750.3 1107.7,-2640.8 254.9,-666.9 498.9,-1337.4 736.5,-2010l-629.9 0 388.2 -977.7 -825.3 0.6 -177.8 878.7 -1475.8 1.7c-308.2,821.6 -597,1650.3 -909.2,2468.5 -285.3,755 -571.1,1509.3 -877.9,2254.8 -294.4,700.8 -609.8,1381.3 -966.1,2051.9 -103.9,187.6 -210.8,372.2 -317.9,554zm4716.8 -8753.9l0 0 712.9 -1792.2 687.9 163c271.8,55.8 539.6,93.9 817.2,31.7 53.6,-77.8 101.2,-167.2 150,-251.2 46.5,-80 94,-158.5 144.2,-236.6l-278.6 -115.8 -266.4 -194.2 -204.6 -284.6 -82.1 -358.8 13.9 -87.3 -122.5 -52.1 -232.8 -169.6 -176.8 112.1 -279.9 216.3 -287.5 263.3 -290.8 307.8 -288.5 348.4 -279 381.9 -267 413.9 -185.7 326.5 174.5 0 -199 977.7 740.6 0zm10148 -3133.4l0 0 -95.6 -34.2 -262.8 -190.4 -179.9 113.4 -279.9 217.1 -288.5 263.4 -289.4 307.8 -288.5 347 -279.7 383.9 -267.4 412.8 -184.6 326.5 174.5 -0.6 -198.8 977.3 544.3 0 85.5 -778.8c965.9,-49.3 1928.6,-114.5 2892.3,-214.3 277.3,-28 553.6,-56.9 830.1,-88.5l-23 -18.3 -154 -136.3 -136.5 -147.7 -117.7 -157.6 -99.5 -167.7 -112.3 -290.7 -336.3 -49.2 -367.9 -132.7 -326.8 -237.2 -223 -371.1 -14.6 -333.9zm-25182.3 11822.3l0 0c-257.5,89.9 -513.1,166.9 -778.5,234.5 -421.2,95.6 -837.5,161.3 -1269.9,203.6l-452 28.5c-586.4,19.1 -1161.3,1 -1746.4,-62.3 -229.4,-31.7 -454.7,-69.5 -683.1,-116.7 -277.3,-66.9 -537.8,-144.5 -808.7,-245.8l-529.8 -256.6 -165.8 -104.6 -293.2 -218.5 -261.7 -248.6 -217.8 -279.2 -175.5 -305.1 -83.5 -217 -183.3 -176.4 -219.2 -278.5 -174.1 -305.1 -85.5 -219.7 -1028 990.8 -625 525.9 -611.3 439.5 -302.3 187.6 -594.5 310.6 -300.8 126.2 -304.4 107.6 -306 88.2 -307.2 68.6 -310.5 49.9 -310.9 29.8 -580.2 2.9 -500.6 -52.1 -450.5 -108.6 -208.7 -79.5 -193.7 -96.2 -182.3 -116.2 -161.8 -133.9 -143.9 -152.9 -119.5 -169.5 -95.7 -185 -68.6 -195.8 -22 -109.2 -48.2 -30.6 -163.5 -133.7 -142.8 -153.9 -120.9 -168.9 -94.2 -184.2 -68.9 -195.8 -42.4 -205.3 -12.9 -170.6 -841.7 937.7 -516.5 490.8 -519.5 415.6 -523 338.1 -265.7 142.6 -270.4 123 -276.7 105 -279.9 86.2 -284.1 66.9 -289.1 48.2 -291.5 27.6 -527 4.6 -432.8 -41.8c-198.8,-37 -378,-82.3 -571.1,-149.2l-170.4 -76.1 -159.5 -92.9 -147 -110.1 -131.4 -127 -111.3 -143.8c-93.6,-168 -178.1,-341.4 -196.8,-539.3l-460.2 351.9 -272.5 177.2 -279.3 159.4 -284.7 138.9 -290.5 121.5 -297.6 103.1 -303.3 83.7 -308.8 65.6 -313.9 46.5 -319 27.6 -324.4 8.5 -330.2 -9.1 -316.4 -30.6 -302.3 -51.5 -286.4 -71.8 -271.8 -95.1 -255.6 -118.7 -237.6 -141.7 -217.5 -166 -195.8 -185.6 -169.4 -207.9 -140.8 -225.3 -109 -243 -31.5 -104 -15 -10.8 -194.7 -185.7 -169.7 -207.9 -140.5 -225.6 -110 -242.7 -79 -255.2 -47.1 -266.9 -18 -275.7 9.5 -283.7 38.7 -323 61.4 -322.7 86.9 -324.6 108.9 -327.7 132.4 -327.3 154 -330 376.4 -666.1 449.7 -649.3 508.3 -609.7 565.9 -569.6 621.3 -528.4c256.3,-195.2 514.1,-378.7 780.9,-556.7l799.9 -456.9c272.5,-129.6 539.9,-245.2 819.5,-352.4l540.3 -166.5c267,-64.3 523.6,-112.5 793.8,-149.7l516.8 -28.9 463 22.6c214.1,27.6 409.6,65.8 617,122.3l362.7 147.7c166.6,97 346.4,206.8 471,351.2l153.1 -348.5 4221.6 0 -441.4 977.3 1102.8 0 -2082.2 4606.7 1025.5 624.4 -334 372.1 970.2 588.7 0 -1 6.8 -222.7c74.6,-444.3 267,-865.5 442.5,-1279 114.1,-258 230.7,-515.6 347.9,-772.6l3062.6 -6481.9c-75,0 -151,0 -225,0l97.8 -976.2c-251.8,-5.6 -505.9,-0.9 -758.5,-0.9l158.5 -1592.6c1101.1,-60.6 2201.1,-130 3297.5,-224.4 849.8,-78.1 1694.2,-170 2538.1,-278.2l1184.7 -163.4 -524 1140.1 1185 -164.3 -4194.5 9123.2 1193.2 623.5 -424.1 409.9 1002.8 523.8 -7.4 -17.2 -79.8 -346.9 -34.3 -362.3 9.3 -374.4 37.3 -290.8 61.5 -288.2 85.5 -289.3 109.6 -290.2 133.7 -289.3 156.1 -290.2 378.1 -583.1 456.8 -563.1 509.1 -523.1 565 -483.4c255.8,-190.9 514.1,-375.3 783.8,-546.4 432.4,-263.1 873.6,-498.9 1335.8,-704.8l350.6 -148.6c712.3,-280.1 1434.1,-487.9 2186.1,-626.7 422.9,-70.7 841.3,-116 1268.8,-137.2 362.1,-11.3 716.7,-2.3 1076.1,21.8l334.4 39.2 317 53.7 300.6 72.6 284.7 88.8 268.4 105.8 251.8 126.5 232.2 144.5 205.7 163.2 179.5 181.6 148.3 202.6 114.9 222.5 74.6 237.3 4.1 21.3 140.2 110.6 177.8 183.7 149.7 201.8 113.7 221.7 75.7 236.7 35.9 246.9 -2.7 256.6 -66.9 373.1 -141.9 361 -207.7 338.5 -269.1 314.6 -324.8 293 -378.7 272.8 -432 258.8 -746.6 356.9c-130.4,53 -259,105.1 -390,153.3l919.3 441.7 -401.1 467.1 1063.5 509.6 -645.4 752.3 -285.1 296.7 -296.6 276.3 -308.8 256.1 -320.4 233.8 -331.2 212.2 -343.5 191.3c-237.8,112.6 -471.6,219.9 -717.9,314.4zm346.3 -3538l0 0c-123.1,32.1 -246.5,62.6 -371,92.1 -867.1,190.9 -1742.6,331.9 -2630.4,415.6 -35.3,114.2 -58.7,234.5 -69.5,355.4 138.1,26.7 270.1,41.4 409.6,52.7 210.3,4.1 412.7,0 619.3,-15.2 197.9,-25 384.4,-58.3 576.9,-103 182.5,-54.8 352.2,-115.8 526.6,-190.8 182.9,-90 351.5,-185.7 521.9,-293.9 144.3,-101.3 282.3,-204.9 416.6,-312.8zm-32296.6 -10564.3l0 0c2.3,-29.6 4,-58.4 6.1,-88.6l-735.7 -35.1 68.9 -853.3c15.6,-255 20.9,-504.5 14.5,-761.5 -17.5,-230 -44.4,-450.7 -86.5,-678.9 -48.8,-207.9 -107.3,-399.9 -181.2,-603 -10.2,-22.3 -19.7,-44.3 -28.9,-66 -138.4,-131.5 -278.7,-253 -432,-373.8 -180.2,-122.4 -358.7,-231 -553.2,-335.5 -212.4,-98.4 -421.2,-180.8 -644.2,-257.8 -246.3,-72.6 -485.9,-129.9 -740.1,-180 -279.3,-44.7 -553.8,-76.3 -838.2,-98.3 -282.3,-13 -563.3,-19.8 -848,-15.1 -393.3,16.7 -775.4,52.1 -1167,109.2 -231.8,41.3 -460.3,87.3 -691.6,139.5 -388.9,100.1 -764.9,217.7 -1143.4,358 -385.4,151.8 -755.7,320.9 -1125.6,510.1 -301,162.2 -589.1,333.8 -877.9,517.9 -445.2,296.3 -862.6,611.6 -1272.6,955.1 -367.1,320.9 -716.4,652.9 -1056.7,999.7 -212.1,227.6 -420.1,456.4 -622.7,692.1 -337.1,406.7 -648.9,818.4 -949.2,1248.5 -176.6,265.2 -348.9,534.7 -513.9,805.4 -326.8,557.3 -621.6,1121.4 -892.8,1706.1 -159.2,366.3 -305.8,731.8 -439.5,1105.4 -117.1,351.4 -218.6,702.4 -305.8,1061.2 -74.8,339.7 -134.1,674.3 -177.5,1018 -26.8,273.5 -42.1,542.4 -47.1,814.9l26.1 528.1 74 485.7 118.7 446.3 118.8 292.2 152 154.2 350 276.5 395 241.8 442.5 206c251.5,95.6 497.2,172.5 755.1,244 291.5,64.7 575.2,116.8 867.4,159.2 327.2,35.3 651.9,58.7 979.1,72.5 305.8,3.9 609.8,1.8 912.2,-8.3 369.6,-22.3 733,-55.6 1098.1,-103.9 360.8,-55.5 712.7,-122.4 1066.9,-203.1 352.3,-90.1 694.1,-191.4 1036.9,-305.3 343.4,-123 675.3,-255.8 1007.1,-404.4 327.2,-155 642.1,-319.2 956,-498.2 310.5,-187.3 608.1,-383.9 903.8,-593.5 294.6,-220.8 576.6,-449.3 854.4,-690.4l545.8 -513.6 3259.5 13.3 -998 969 1658.8 7.4 -1440.6 1401.7 -726.2 607.5 -781.3 566.7 -829.4 525.1 -873.8 483.4 -910.6 442.3 -944.7 397.9 -970.2 356.5 -993.4 311.2 -1010.6 268.3 -1021.9 221.9 -1028 174.2 -1027.5 128.1 -1024.3 79.8 -1014.9 30.6 -999.7 -20.9 -979.5 -71.8 -954.5 -124.1 -923.9 -178.3 -889.3 -234.9 -847 -290.3 -801.2 -350.6 -749 -409.6 -690.3 -474.3 -625 -538 -553.2 -603.2 -472.1 -668.7 -124.2 -236.4 -64.8 -71.2 -472.1 -668.7 -384.8 -735.2 -290.5 -797.8 -189.3 -861.6 -83.4 -920.2 26.1 -973.7c28.3,-286.5 65.1,-569.5 112,-855.4 56.4,-283.1 121.9,-562.2 195.8,-842.3 84.5,-281.3 176.8,-557.5 278.2,-835 112,-279.2 232.2,-552.7 360.8,-826.3 140.2,-277.4 286.8,-549.2 442.5,-819 224.7,-367.5 459.2,-722 710.6,-1071.7 263.4,-351.9 537.8,-689.2 828.8,-1022.8 304.7,-335.1 618.3,-655.1 946.7,-970.6 343.1,-317 695.7,-621.1 1061.2,-916.3 428.6,-335.8 866.4,-654 1317,-961.8 358,-232.9 720.1,-457.6 1086.9,-674.5 377,-211.3 756.8,-413.9 1141.2,-607.6 394.4,-189 791.1,-369.1 1192.8,-542.5 414.1,-166.1 827.4,-323.9 1245.8,-473.2 570.5,-193 1141,-365.5 1719.8,-523 434.1,-111.3 865.4,-210.8 1301.5,-302.3 435.8,-83.7 873,-160 1309.6,-224.7 439.8,-58.4 878.7,-107.8 1317.8,-146.5 441.9,-31.5 882.3,-54.1 1325.6,-67.2 454.1,-5.4 908.4,-1.5 1362.5,10.4 828.1,32.8 1647.3,101.2 2468.8,201.4 623.5,81.7 1241.1,181.9 1856,296l2145.8 383 760.8 -141.7c198.6,-105 341.1,-232.9 489.7,-397.9l211.4 -258.1 1853.7 -1.6 -327.6 977.7 989.6 -1.8 -2456.7 7327.1 -1951.3 -93.5 69.3 -853.5zm9446 7410.4l0 0c-9.4,6.8 -18.3,11.3 -27,17.7 -486.7,382.1 -877.9,866.7 -1252,1351.5l-341.3 477.1c-297.6,446.9 -564.8,899.4 -794.8,1382.8 -72.3,168.2 -139.2,334.1 -198.6,502.8 70.3,-39.7 137.5,-81.5 207.7,-127.2 144.9,-109 278.2,-219.8 411.9,-342.8 202.4,-203.2 382.1,-413.2 560,-640.3 514.1,-703.9 929.8,-1473.8 1285.9,-2267.1 48.8,-116.8 100.1,-234.8 148.2,-354.5z"/>
    <path class="fil2" d="M97633 13886.9c-839.5,96.4 -1755.2,-378.7 -815.5,-1339.8 25.4,-25.6 -7.4,-69.5 -37.6,-90.7 -1079.1,-777.4 -3437.7,1495.2 -4333.8,4337.4l1389.2 0 -107.9 521.4 -1416 2.1c-250.5,636.1 -586.2,1622.3 -1020.5,2761.6 -1076.8,2824.3 -2374.5,6562.3 -5442.7,8072.5 -866,425.9 -1825.1,639.3 -2881.5,640.1 -927.7,1 -1631.9,-100 -2070.4,-377.4 -1058.5,-668.1 -366.2,-1572.9 197.1,-1794.9 728.7,-285.1 2080.3,73.2 1794.2,1435.9 -11,56.5 9.1,94.2 47.5,116.8 849.7,499.2 3133.9,-3646.3 5050.7,-9144.4 244,-697.6 426.6,-1233.4 558.5,-1607.2l-1601 0.6 538.2 -1353.3c421.8,101.3 797.8,199.7 1266.7,115.9 312.9,-55.8 307.1,-157.6 603.5,-646.5 1160.2,-1926.9 4379.3,-4904.3 8554.8,-3605.5 414,129 608.5,397 686.9,703 335.2,-220.6 733.3,-314.3 1171.4,-314.3 539.9,-1.2 990.6,147.2 1351.4,440.4 363.7,297 526.6,651.3 493.4,1065.1 -33.2,411.8 -254.9,767.9 -667.2,1065.8 -408.7,299.5 -884.8,449.6 -1422.2,449.6 -543,1.2 -998.7,-147.2 -1366.6,-446.9 -347.3,-283.7 -514.8,-621.5 -520.7,-1007.3zm-1709.6 5089.6l0 0c140.5,-290.5 246.3,-525.1 316.2,-702.2 71.6,-180 108.6,-311.8 116,-394.3 13.3,-162.2 -60.4,-283 -218.8,-364.3 -159.5,-81 -405.6,-120.8 -737.4,-119.9l-207 0 46.1 -425.6c791.7,-41.3 1631.9,-104 2525.1,-196.7 897.3,-89.3 1833,-202.4 2815.4,-336.8l-2647.4 5959.1c-51.6,128.6 -90,225.6 -111.3,294.2 -19.7,65.3 -31.9,125.2 -35.3,174 -10.2,123.4 12.2,216.9 63.1,280.2 55,65 139.2,96.4 260,95.7 138.8,0 303.1,-70.7 496.2,-217.4 193,-145.6 524,-469.3 1001.8,-972.1l548.4 308.3c-786.4,854.3 -1514.3,1472 -2189.6,1852.2 -675.3,381.1 -1369.3,570.6 -2080.6,571.3 -626.1,0 -1097.9,-122.4 -1412.7,-370.3 -315.3,-248.3 -451.6,-605.4 -414.6,-1068.5 12.2,-150.1 81.7,-398.7 204.2,-748.4 122.3,-346.7 289.8,-730.4 493.5,-1150.1l1168.7 -2468.5zm-16889.9 -2899.5l0 0c421.2,100.1 797.9,199 1267.2,115.8 313.2,-55.5 308.1,-157.7 602,-647.6 1161.3,-1925.5 4380.1,-4903.1 8556.3,-3604.3 576,177.8 727,626.6 742.2,1066.6 49,1391.3 -3365.4,1118.6 -1831.1,-451 25.1,-25.9 -7.8,-70.6 -38,-91.9 -1078.5,-777.1 -3437.7,1495.4 -4333.6,4338.6l1388.3 -1.9 -105.6 523.4 -1417.5 1c-250.1,637 -586.4,1622.2 -1021.1,2761.7 -1076.1,2824.2 -2374.1,6563.4 -5442.3,8073.3 -865.8,425 -1824.8,638.1 -2881.1,640.1 -927.5,0.9 -1632.1,-101.1 -2070.4,-377.2 -1058.4,-669 -366.3,-1573.5 197.8,-1796.1 727.6,-284.3 2079.7,73.5 1793.9,1436.7 -11.6,56.4 9.5,93.6 48.2,116.8 849.7,498.4 3133.3,-3645.8 5050.7,-9143.9 243.3,-698 425.6,-1234 557.2,-1608.4l-1601.7 1.5 538.8 -1353zm-5722.2 6582l0 0c-673.6,825.5 -1454.1,1434.8 -2338.4,1820.8 -890.5,390 -1937.8,584.5 -3145.1,586.4 -1414.8,1.7 -2483.2,-237.3 -3209.1,-716.8 -729.3,-478.8 -1055.4,-1163.4 -983.4,-2057.9 53.9,-661.9 347.2,-1358.4 877.6,-2090.5 534.4,-731 1208.1,-1363.9 2032.8,-1900.7 810.7,-523.4 1688.9,-933.1 2634.4,-1218.9 942,-289.4 1867.8,-434.2 2775.1,-434.2 950.9,-0.9 1698.5,152.1 2246.6,457.5 548.1,306.6 799.5,713.2 757.8,1221.3 -64.2,790.8 -746.9,1486.8 -2042.7,2086.2 -1300.4,597.8 -3002.2,990.8 -5115.3,1175.4 -60.4,151.1 -104.2,285.9 -134.4,406 -30.8,119.9 -47.5,227.6 -54.9,328.9 -43.8,524.8 75.4,909.8 355.9,1158.4 280.1,247.6 742.2,370.3 1376.5,370.3 626.5,-1.1 1197.3,-118.8 1712.1,-355.6 514.8,-238.4 1042.5,-624.4 1576.3,-1161.3l678.4 324.6zm-5282.4 -1807.9l0 0c1111.1,-181.8 2043.4,-538.6 2806.5,-1081.5 763.1,-540.6 1167,-1109.5 1215.5,-1701.2 17.7,-205.1 -39,-367 -167.7,-488 -128.6,-119.6 -314.8,-179.9 -550.3,-178.9 -524.3,0.9 -1090.1,312.8 -1693.8,938.6 -607.7,626.3 -1144,1462.9 -1610.3,2511.1zm-9579.5 -8052.5l0 0c1937.8,-104.7 3905.7,-264.6 5842.8,-535.4l-4739.8 10307.9c-27.2,59.1 -63.4,125.8 -100.1,208.7 -58.7,129.8 -92.3,216.7 -95.1,259.6 -10.1,117.7 20.5,208.3 84.5,277.4 68.9,65.8 169.7,99.5 308.6,99.5 137.4,0.7 298.9,-62.6 491.3,-190.2 191.8,-129.4 566.7,-463.1 1117.8,-997l589.8 308.3c-841.9,848.1 -1631,1465 -2364,1844.4 -732.7,382.8 -1478.5,573.6 -2233.3,573 -677.2,0 -1187.2,-122.4 -1530.4,-370.3 -343.4,-249.6 -495.1,-605.4 -458.1,-1068.4 18.3,-228.9 253.2,-831.2 703.8,-1807.9l45.2 -99.8 3083.3 -6525c29.5,-62.1 65.1,-150.5 116,-268.1 195.8,-427.6 301.6,-704.2 310.9,-828.5 13.3,-161.1 -63.2,-282 -229.8,-358.7 -167.7,-77.1 -432.6,-117.6 -796.1,-117.6l-218.6 0 71.2 -711.7zm-16903.1 -7787l0 0 1000.8 -2.2 -2148.2 6408 -1131.7 -53.7 31.3 -394.5c124.4,-1512.8 -269.2,-2700.4 -1194.5,-3551.7 -917.4,-857 -2256.8,-1282.9 -4025.9,-1281.7 -1322.5,1.6 -2616.4,281.9 -3875.5,834.8 -1265.2,553.4 -2454.2,1370.9 -3573.8,2448.6 -1231.9,1179.1 -2260.9,2562.2 -3087.2,4150.2 -832.5,1582.5 -1301.5,3072.2 -1414.8,4459 -135.4,1664.9 289.1,2940.4 1276.4,3821.2 986.4,884.5 2473.2,1323.4 4448.7,1321.3 1562,-1.8 3043.7,-286.5 4444.5,-848.4 1401.3,-563.1 2655.9,-1386 3770.7,-2476.6l1962.5 8.2c-6487.2,6829.9 -24272.3,7600.5 -23436.4,-2676.5 116.7,-1432.7 612.5,-2848.4 1487.4,-4240.9 876.2,-1397 2063.4,-2669.6 3556.8,-3812.4 1748.6,-1342 3743.4,-2378.4 5990.2,-3109.3 2246.9,-731 4528.8,-1100.2 6846.9,-1102.1 1599.8,-1.7 3221.2,150.4 4861.5,450.1 1640.1,305 2504.8,457.6 2589.3,456.3 341.8,0 644.8,-69.4 907,-200.3 262.4,-129.6 498.3,-334.9 714,-607.3zm12407 11966l0 0 -2242.8 4950.5 -2.1 18c-343.4,762.5 -519.6,1207.6 -530.7,1336.2 -9.3,116.8 13.2,214.6 69.9,285.3 56.3,72.1 132.4,108.3 234.2,109.2 304.4,0 709.2,-266.4 1222.7,-794.3 148.3,-151 269.1,-268.9 352.6,-350.3l507.3 308c-662.4,776.3 -1314.4,1345 -1953.3,1709.4 -639,366.3 -1312.8,549.3 -2022.3,548.6 -583.6,0 -1019.8,-97.9 -1310.6,-288.8 -290.5,-191.2 -423.1,-474.3 -393.7,-839.6 9.5,-114.2 35.7,-253.8 79.8,-422.8 42.7,-170.6 105.8,-390.3 193.1,-656.8 -617.6,746.1 -1265.2,1302.3 -1949.6,1665.1 -683.1,363 -1426,541.7 -2224.9,543 -830.7,-1.2 -1469,-192 -1917.6,-575.2 -450.1,-379.4 -648.3,-905.5 -594,-1567.9 61.9,-762.5 359.7,-1570.6 892.6,-2419 530.4,-845.4 1211.2,-1592.8 2040.6,-2241.1 658.6,-515.9 1327.5,-916.5 2014.4,-1195.6 688.6,-277.4 1339.8,-416.7 1952.1,-416.7 584.4,0 1033.7,105.7 1353.3,313.7 318.7,209.8 514.8,528.6 587.4,957.2l426.7 -975.7 3215 0zm-4287.4 1452.4l0 0c20.3,-239.4 -34.7,-430.4 -163.7,-571.2 -128.6,-141.9 -308.1,-213.3 -539.6,-213.3 -326.5,0 -649.5,119.7 -975.6,359.7 -326.8,239.6 -710.6,639.4 -1153.9,1194.9 -523.6,663.1 -943.5,1316.4 -1265.4,1956.2 -317.7,642 -495.5,1188.3 -532.9,1640.2 -22,272.8 35.3,486.9 170,644.4 134.4,156.8 327.6,233.8 583.4,233.8 365.5,1.1 759.5,-164.9 1174.2,-493.2 418.4,-328.5 821.9,-791.1 1218.3,-1388.9 423.9,-666.7 768,-1312.5 1039.4,-1935.1 272.9,-622.4 419.5,-1096.2 445.7,-1427.5z"/>
    <path class="fil0" d="M78071.7 8927.6l-89.9 -1195.8 -8.5 0 -505.7 1195.8 604.1 0zm990 1232.8l0 0 -891.8 0 -40.4 -537.2 -959.8 0 -227.7 537.2 -979.6 0 1661.4 -3280.9 969.3 0 468.7 3280.9zm-3083.8 -801.2l0 0 -150 801.2 -2373.1 0 624.4 -3280.9 917.6 0 -477.2 2479.7 1458.3 0zm-4364.9 110.1l0 0c175.1,0 324.4,-74.3 446.9,-221.4 121.2,-148.3 211.1,-335.1 268.1,-559.5 56.7,-224.4 84.1,-383.9 84.1,-480.6 0,-209.6 -48.2,-369.1 -143.6,-475.9 -97,-106.5 -219.2,-161.3 -366.2,-161.3 -166.6,0 -309.2,67.8 -428.7,202.3 -120.6,135.3 -209.8,316.6 -270.8,540.8 -59.4,223.7 -89.3,415.6 -89.3,573.5 0,166.8 43.7,306 131.6,416.4 88.3,110.1 210.8,165.7 367.7,165.7zm386.9 -2645.4l0 0c447.3,0 777.9,133.8 988.3,400.5 210,268.5 313.9,597.6 313.9,989 0,150.3 -18.8,322.7 -57.7,515.8 -39.1,192.9 -113,393.2 -225.4,600.2 -110.6,206.6 -254.1,381.3 -431.3,526.2 -178.5,143.6 -347.8,240.2 -512,287.1 -162.3,48.6 -335.7,73.4 -519.5,73.4 -420.2,0 -746.6,-117.6 -983.5,-355.2 -235.5,-237.7 -353.2,-570.2 -353.2,-999 0,-223.6 29.8,-441.5 88.3,-654.1 57.6,-212.5 145.5,-413.8 260.9,-602 115.7,-189.1 258.3,-347.8 427.5,-474.2 169.7,-127.7 335.7,-211 498.9,-250.2 164.1,-39.1 331.8,-57.5 504.8,-57.5zm-2016 1131.6l0 0 -835.8 105.8 0 -17.8c0,-160.4 -42.5,-279.1 -127.6,-356 -85.8,-77.8 -179.9,-116.9 -284.4,-116.9 -133.3,0 -263.3,54.8 -390.9,165.1 -126.6,108.4 -229.4,276.8 -306.5,502.2 -77,224.1 -115.7,444 -115.7,658.3 0,163.4 39.7,298.8 119.7,408.3 78.4,109.2 193.9,164.9 344.8,164.9 139.2,0 256.2,-50 352.3,-148.4 95.7,-98.3 179.5,-250.1 252.4,-454.2l850.8 148.3c-89.3,337.4 -259.6,623.3 -513.7,854.1 -253.5,231.1 -583.8,347 -991.3,347 -423.5,0 -747.3,-125.1 -971.6,-377.4 -223.6,-252.7 -336,-588 -336,-1007.3 0,-321.3 66.9,-643.8 200.2,-966.7 132.4,-324.9 326.8,-578.8 581.7,-764.2 256.2,-185.6 563.1,-276.7 921.4,-276.7 369.2,0 662.1,102.9 876.5,309.8 215.2,208.7 339.1,482.4 373.7,821.8zm-3200.2 -165.8l0 0 -850.4 53c-19.4,-285.9 -162.6,-428.6 -427.6,-428.6 -109.6,0 -192.4,25.9 -250.7,76.8 -57.4,52 -87.3,113.4 -87.3,184.8 0,51.5 24.1,101.9 71,149.2 45.8,47.5 157.4,106.5 332.5,180.7 221.6,94.9 403.9,185.6 542,270.1 138.8,86.1 252.8,195.8 341.3,331.2 88,136.3 132.7,306 132.7,508.4 0,191.1 -48.1,369.1 -143.8,534.2 -95.7,164.1 -232.8,300.8 -412.7,407.3 -180.2,106.7 -436.4,159.4 -768.4,159.4 -466.6,0 -797.8,-98.9 -994.4,-299.5 -195.1,-200.6 -293.2,-456.3 -293.2,-769.8l0 -76 855.5 -65.4c0,204.2 40.4,349.1 122.3,433.6 81.1,84.3 193,127 336,127 144.5,0 254.1,-35.4 330.1,-105.7 76.1,-70.7 113.1,-150.3 113.1,-239.4 0,-66.9 -23.9,-129.6 -72.1,-186.7 -48.1,-56.3 -166.2,-123 -355,-198.4 -431.9,-173.4 -705.4,-332.9 -819.9,-479.8 -114.7,-146.5 -172.1,-321.7 -172.1,-528.5 0,-187.6 47.5,-358 141.5,-514.8 94.7,-155 232.1,-274.7 411.7,-360.8 179.5,-85.6 395.6,-128.1 646.8,-128.1 796.1,0 1221,320.7 1270.9,965.7zm-2859.1 -910.1l0 0 -133.3 705 -1493.6 0 -98.4 521.4 1439.9 0 -133.7 665 -1436.9 0 -124.6 641.2 1620.8 0 -144.9 748.3 -2526.6 0 627.1 -3280.9 2404.1 0zm-4927.6 2589.8l0 0c174.5,0 323.8,-74.3 446.6,-221.4 121.5,-148.3 211.1,-335.1 267.8,-559.5 56,-224.4 84.9,-383.9 84.9,-480.6 0,-209.6 -48.2,-369.1 -143.9,-475.9 -95.7,-106.5 -218.2,-161.3 -365.4,-161.3 -167.1,0 -309.9,67.8 -429.4,202.3 -120.4,135.3 -210.4,316.6 -270.1,540.8 -60.5,223.7 -90.7,415.6 -90.7,573.5 0,166.8 43.8,306 133.1,416.4 87.2,110.1 209.7,165.7 367.1,165.7zm386.2 -2645.4l0 0c449.3,0 778.8,133.8 988.9,400.5 209.4,268.5 314.3,597.6 314.3,989 0,150.3 -19.7,322.7 -57.4,515.8 -39.3,192.9 -114.1,393.2 -225.6,600.2 -111.1,206.6 -254.9,381.3 -432,526.2 -177.2,143.6 -347.9,240.2 -511.4,287.1 -162.9,48.6 -336.7,73.4 -520.3,73.4 -419.4,0 -747.3,-117.6 -983,-355.2 -235.9,-237.7 -352.6,-570.2 -352.6,-999 0,-223.6 29.5,-441.5 87.2,-654.1 58.4,-212.5 144.7,-413.8 260.7,-602 116,-189.1 259.2,-347.8 427.9,-474.2 168.6,-127.7 335.6,-211 498.9,-250.2 165.2,-39.1 332.9,-57.5 504.6,-57.5zm-1625.2 55.6l0 0 -150.3 805.2 -955.3 0 -480.9 2475.7 -912.5 0 478.9 -2475.7 -914 0 152.5 -805.2 2781.5 0zm-3189.1 0l0 0 -381.9 1977.6c-89.3,463 -248.6,805.2 -478.8,1027 -230.4,221.5 -571.2,331.9 -1025.9,331.9 -252.5,0 -452.7,-26.8 -603.1,-82.3 -149.9,-54.9 -276.5,-138.3 -380.4,-248.8 -102.8,-109.5 -177.8,-235.6 -224.7,-376.6 -46.1,-140.9 -70.1,-292 -70.1,-452.7 0,-205.7 17.5,-400.7 54.6,-587.2l302.7 -1588.9 913.3 0 -354 1846.1c-15,86.1 -24.5,177.9 -24.5,275.6 0,258.4 139.5,388.3 413.8,388.3 147,0 271.4,-48.2 372.9,-146.4 102.2,-98.3 180,-289.3 234.3,-573l335.2 -1790.6 916.7 0zm-4484 2048.1l0 0 -90.4 -1195.8 -7.8 0 -505.9 1195.8 604.1 0zm989.8 1232.8l0 0 -891.1 0 -41.2 -537.2 -959.3 0 -228.1 537.2 -979.7 0 1661.5 -3280.9 969.1 0 468.7 3280.9z"/>
   </g>
  </g>
 </g>
</svg>
