<?xml version="1.0" encoding="iso-8859-1"?>
<!-- Generator: Adobe Illustrator 21.0.0, SVG Export Plug-In . SVG Version: 6.00 Build 0)  -->
<svg xmlns="http://www.w3.org/2000/svg" xmlns:xlink="http://www.w3.org/1999/xlink" version="1.1" id="Capa_1" x="0px" y="0px" viewBox="0 0 512 512" style="enable-background:new 0 0 512 512;" xml:space="preserve" width="512" height="512">
<g>
	<g>
		<g>
			<g>
				<g>
					<g>
						<g>
							<g>
								<g>
									<g>
										<g>
											<g>
												<circle style="fill:#FF641A;" cx="256" cy="256" r="256"/>
											</g>
										</g>
									</g>
								</g>
							</g>
						</g>
					</g>
				</g>
			</g>
		</g>
	</g>
	<path style="fill:#F03800;" d="M276.572,511.176C408.336,500.697,512,390.459,512,256c0-8.642-0.435-17.182-1.271-25.604   L409.778,129.446l-64.404,72.914l-56.85-56.85L85.03,319.634L276.572,511.176z"/>
	<g>
		<path style="fill:#FFFFFF;" d="M246.854,349.427h-93.427C101.829,349.427,60,307.598,60,256v0    c0-51.598,41.829-93.427,93.427-93.427h93.427V349.427z"/>
	</g>
	<g>
		<path style="fill:#E9EDF5;" d="M60.001,255.905c0,0.032-0.001,0.063-0.001,0.095l0,0c0,51.598,41.829,93.427,93.427,93.427h93.427    v-93.522H60.001z"/>
	</g>
	<g>
		<rect x="207.529" y="145.51" style="fill:#FFDA00;" width="80.996" height="220.981"/>
	</g>
	<g>
		<rect x="207.529" y="255.905" style="fill:#FFB000;" width="80.996" height="110.585"/>
	</g>
	<g>
		
			<rect x="314.101" y="152.255" transform="matrix(0.8924 -0.4512 0.4512 0.8924 -37.1289 184.7719)" style="fill:#555A66;" width="109.698" height="36"/>
	</g>
	<g>
		
			<rect x="314.101" y="232" transform="matrix(0.8924 -0.4512 0.4512 0.8924 -73.1075 193.3494)" style="fill:#555A66;" width="109.698" height="36"/>
	</g>
	<g>
		<polygon style="fill:#353D44;" points="317.371,255.905 311.879,258.681 328.121,290.809 397.167,255.905   "/>
	</g>
	<g>
		
			<rect x="314.101" y="311.745" transform="matrix(0.8924 -0.4512 0.4512 0.8924 -109.0861 201.9269)" style="fill:#353D44;" width="109.698" height="36"/>
	</g>
</g>















</svg>
