<?xml version="1.0" encoding="UTF-8"?>
<!DOCTYPE svg PUBLIC "-//W3C//DTD SVG 1.1//EN" "http://www.w3.org/Graphics/SVG/1.1/DTD/svg11.dtd">
<!-- Creator: CorelDRAW 2019 (64-Bit) -->
<svg xmlns="http://www.w3.org/2000/svg" xml:space="preserve" width="135.466mm" height="135.467mm" version="1.1" style="shape-rendering:geometricPrecision; text-rendering:geometricPrecision; image-rendering:optimizeQuality; fill-rule:evenodd; clip-rule:evenodd"
viewBox="0 0 43122.9 43122.9"
 xmlns:xlink="http://www.w3.org/1999/xlink"
 xmlns:xodm="http://www.corel.com/coreldraw/odm/2003">
 <defs>
  <style type="text/css">
   <![CDATA[
    .fil8 {fill:#4B4B4D;fill-rule:nonzero}
    .fil1 {fill:#0095FF;fill-rule:nonzero}
    .fil0 {fill:#4BB9EC;fill-rule:nonzero}
    .fil3 {fill:#BEC3D2;fill-rule:nonzero}
    .fil2 {fill:#CDD2E1;fill-rule:nonzero}
    .fil5 {fill:#E9EDF5;fill-rule:nonzero}
    .fil7 {fill:#F03800;fill-rule:nonzero}
    .fil6 {fill:#FF641A;fill-rule:nonzero}
    .fil4 {fill:white;fill-rule:nonzero}
   ]]>
  </style>
 </defs>
 <g id="Layer_x0020_1">
  <metadata id="CorelCorpID_0Corel-Layer"/>
  <path class="fil0" d="M43122.9 21561.4c0,-11908.1 -9653.4,-21561.4 -21561.4,-21561.4 -11908.1,0 -21561.4,9653.4 -21561.4,21561.4 0,11908 9653.4,21561.4 21561.4,21561.4 11908,0 21561.4,-9653.4 21561.4,-21561.4z"/>
  <path class="fil1" d="M43122.9 21561.4c0,-495.7 -18.3,-987 -51.2,-1474.3l-13097.3 -13097.3 -16825.8 29143.3 6938.7 6938.7c487.2,32.8 978.6,51.1 1474.2,51.1 11908,0 21561.4,-9653.4 21561.4,-21561.4z"/>
  <path class="fil2" d="M18655.7 42927.3c950.5,128 1920.1,195.5 2905.7,195.5 985.6,0 1955.2,-67.5 2905.7,-195.6l0 -10079.8 -5811.4 0 0 10079.8z"/>
  <path class="fil3" d="M21553.5 32847.5l0 10275.3c2.7,0 5.3,0.1 8,0.1 985.6,0 1955.2,-67.5 2905.7,-195.6l0 -10079.8 -2913.7 0z"/>
  <polygon class="fil4" points="28928.9,8800.6 14194,8800.6 6826.5,21561.4 14194,34322.2 28928.9,34322.2 36296.4,21561.4 "/>
  <polygon class="fil5" points="36296.4,21561.4 28928.9,8800.6 21553.5,8800.6 21553.5,34322.2 28928.9,34322.2 "/>
  <path class="fil6" d="M29974.3 36133.1l-16825.8 0 -8413 -14571.6 8413 -14571.7 16825.8 0 8413 14571.7 -8413 14571.6zm-14734.9 -3621.7l12643.9 0 6322 -10950 -6322.1 -10950 -12643.9 0 -6322 10950 6322 10950z"/>
  <polygon class="fil7" points="38387.3,21561.4 29974.3,6989.8 21553.5,6989.8 21553.5,10611.4 27883.4,10611.4 34205.4,21561.4 27883.4,32511.4 21553.5,32511.4 21553.5,36133.1 29974.3,36133.1 "/>
  <path class="fil8" d="M14248.6 21781.1l0 -925 448.3 0c355.8,0 491,185 491,462.5 0,277.5 -135.2,462.5 -491,462.5l-448.3 0zm2540.2 -462.5c0,-1017.5 -647.5,-1729.1 -1914.1,-1729.1l-2205.8 0 0 5037.8 1579.7 0 0 -1601 626.2 0c1266.6,0 1914.1,-775.6 1914.1,-1707.7zm3977.6 3308.7l1665 0 -1835.8 -5037.8 -1821.6 0 -1842.9 5037.8 1657.9 0 249.1 -761.3 1679.2 0 249.1 761.3zm-633.3 -1949.7l-910.8 0 455.4 -1401.8 455.4 1401.8zm5315.3 -1337.7c0,298.8 -156.6,426.9 -455.4,426.9l-626.2 0 0 -853.9 626.2 0c298.8,0 455.4,170.8 455.4,426.9zm-2661.2 -1750.4l0 5037.8 1579.7 0 0 -1807.3 7.1 0 946.4 1807.3 1736.2 0 -1095.8 -1928.3c718.7,-234.8 1088.7,-796.9 1088.7,-1458.7 0,-925 -647.5,-1650.8 -1914.1,-1650.8l-2348.2 0zm8126 0l-3358.6 0 0 5037.8 3358.6 0 0 -1259.4 -1778.9 0 0 -711.6 1565.4 0 0 -1188.3 -1565.4 0 0 -619.1 1778.9 0 0 -1259.5z"/>
 </g>
</svg>
