<?xml version="1.0" encoding="iso-8859-1"?>
<!-- Generator: Adobe Illustrator 21.0.0, SVG Export Plug-In . SVG Version: 6.00 Build 0)  -->
<svg xmlns="http://www.w3.org/2000/svg" xmlns:xlink="http://www.w3.org/1999/xlink" version="1.1" id="Capa_1" x="0px" y="0px" viewBox="0 0 512 512" style="enable-background:new 0 0 512 512;" xml:space="preserve" width="512" height="512">
<g>
	<g>
		<g>
			<g>
				<g>
					<g>
						<g>
							<g>
								<g>
									<g>
										<g>
											<g>
												<circle style="fill:#7FE881;" cx="256" cy="256" r="256"/>
											</g>
										</g>
									</g>
								</g>
							</g>
						</g>
					</g>
				</g>
			</g>
		</g>
	</g>
	<path style="fill:#5BC980;" d="M512,256c0-8.279-0.408-16.461-1.177-24.539L422.062,142.7L90.588,369.983L231.426,510.82   c8.089,0.771,16.283,1.18,24.574,1.18C397.385,512,512,397.385,512,256z"/>
	<g>
		<path style="fill:#FFFFFF;" d="M396.029,380.809H115.971c-19.44,0-35.199-15.759-35.199-35.199V166.39    c0-19.44,15.759-35.199,35.199-35.199h280.059c19.44,0,35.199,15.759,35.199,35.199v179.22    C431.229,365.05,415.469,380.809,396.029,380.809z"/>
	</g>
	<g>
		<path style="fill:#E9EDF5;" d="M396.029,131.191H255.905v249.618h140.125c19.44,0,35.199-15.759,35.199-35.199V166.39    C431.229,146.95,415.469,131.191,396.029,131.191z"/>
	</g>
	<g>
		<rect x="105.917" y="162.235" style="fill:#AFB4C8;" width="102.176" height="123.626"/>
	</g>
	<g>
		<circle style="fill:#555A66;" cx="157.005" cy="207" r="27.336"/>
	</g>
	<g>
		<path style="fill:#555A66;" d="M110.968,285.861h92.074c-1.152-24.431-21.321-43.886-46.037-43.886    C132.289,241.975,112.12,261.43,110.968,285.861z"/>
	</g>
	<g>
		<rect x="285.667" y="189.667" style="fill:#353D44;" width="115.333" height="31.333"/>
	</g>
	<g>
		<rect x="285.667" y="240.333" style="fill:#353D44;" width="115.333" height="31.333"/>
	</g>
	<g>
		<rect x="105.917" y="309.667" style="fill:#555A66;" width="295.083" height="31.333"/>
	</g>
	<g>
		<rect x="255.905" y="309.667" style="fill:#353D44;" width="145.095" height="31.333"/>
	</g>
</g>















</svg>
