<?xml version="1.0" encoding="UTF-8"?>
<!DOCTYPE svg PUBLIC "-//W3C//DTD SVG 1.1//EN" "http://www.w3.org/Graphics/SVG/1.1/DTD/svg11.dtd">
<!-- Creator: CorelDRAW 2019 (64-Bit) -->
<svg xmlns="http://www.w3.org/2000/svg" xml:space="preserve" width="52.9166mm" height="52.9166mm" version="1.1" style="shape-rendering:geometricPrecision; text-rendering:geometricPrecision; image-rendering:optimizeQuality; fill-rule:evenodd; clip-rule:evenodd"
viewBox="0 0 25766.2 25766.2"
 xmlns:xlink="http://www.w3.org/1999/xlink"
 xmlns:xodm="http://www.corel.com/coreldraw/odm/2003">
 <defs>
  <style type="text/css">
   <![CDATA[
    .fil0 {fill:none}
    .fil1 {fill:#E9503B}
    .fil2 {fill:#FEFEFE;fill-rule:nonzero}
   ]]>
  </style>
 </defs>
 <g id="Camada_x0020_1">
  <metadata id="CorelCorpID_0Corel-Layer"/>
  <path class="fil0" d="M12883.1 0c7115.1,0 12883.1,5768 12883.1,12883.1 0,7115.1 -5768,12883.1 -12883.1,12883.1 -7115.1,0 -12883.1,-5768 -12883.1,-12883.1 0,-7115.1 5768,-12883.1 12883.1,-12883.1z"/>
  <path class="fil1" d="M12883.1 2233.1c5881.9,0 10650,4768.2 10650,10650 0,5881.9 -4768.2,10650 -10650,10650 -5881.9,0 -10650,-4768.2 -10650,-10650 0,-5881.9 4768.2,-10650 10650,-10650z"/>
  <polygon class="fil2" points="10528.3,7244.8 10528.3,10649.9 7233.7,10649.9 7233.7,15138.5 10528.3,15138.5 10528.3,18521.5 15238,18521.5 15238,15138.5 18532.5,15138.5 18532.5,10649.9 15238,10649.9 15238,7244.8 "/>
 </g>
</svg>
