<?xml version="1.0" encoding="iso-8859-1"?>
<!-- Generator: Adobe Illustrator 19.0.0, SVG Export Plug-In . SVG Version: 6.00 Build 0)  -->
<svg version="1.1" id="Capa_1" xmlns="http://www.w3.org/2000/svg" xmlns:xlink="http://www.w3.org/1999/xlink" x="0px" y="0px"
	 viewBox="0 0 512 512" style="enable-background:new 0 0 512 512;" xml:space="preserve">
<circle style="fill:#FF9451;" cx="256" cy="256" r="256"/>
<path style="fill:#F7674F;" d="M512,256c0-12.099-0.859-23.996-2.483-35.649L387.005,97.839l19.02,126.744l-70.173-70.174
	l-41.94,51.981l-51.981-51.981l-19.699,24.875l-78.46-78.46l-36.037,113.829l24.055,265.226l0,0
	C168.576,500.334,210.923,512,256,512C397.385,512,512,397.385,512,256z"/>
<path style="fill:#FFD863;" d="M441.317,432.618l-18.436-27.408c-7.364-12.739-8.637-27.952-3.48-41.74l30.982-82.86
	c5.155-15.286,4.317-31.785-2.356-46.468L390.518,101.83c-3.538-6.103-11.244-8.57-17.68-5.613
	c-5.649,2.594-8.864,8.69-7.835,14.819c0.015,0.088,0.028,0.175,0.04,0.263l13.279,102.948c0.781,0.131,1.559,0.3,2.337,0.504
	c12.186,3.221,20.235,14.705,19.082,27.215L394.4,301.4c-0.336,3.76-3.658,6.532-7.417,6.194c-3.76-0.336-6.618-3.674-6.195-7.416
	l5.34-59.434c0.499-5.871-3.239-11.266-8.962-12.779c-3.123-0.824-6.382-0.384-9.174,1.242c-2.794,1.626-4.786,4.242-5.611,7.365
	l-20.166,76.355c-2.263,8.576-2.032,17.574,0.676,26.022L380.21,479.88C402.922,467.252,423.52,451.285,441.317,432.618z"/>
<path style="fill:#FFECB3;" d="M149.617,236.572c-0.824-3.124-2.817-5.74-5.611-7.365c-2.791-1.626-6.051-2.066-9.174-1.242
	c-5.722,1.513-9.46,6.907-8.962,12.779l5.34,59.434c0.423,3.742-2.434,7.08-6.195,7.416c-3.758,0.338-7.081-2.434-7.417-6.194
	l-5.34-59.434c-1.153-12.51,6.896-23.993,19.082-27.215c0.777-0.205,1.556-0.374,2.337-0.504l13.279-102.948
	c0.012-0.088,0.025-0.175,0.04-0.263c1.029-6.129-2.186-12.225-7.835-14.819c-6.436-2.957-14.143-0.49-17.68,5.613L63.973,234.142
	c-6.673,14.683-7.511,31.182-2.356,46.468l30.982,82.86c5.156,13.787,3.884,29.001-3.48,41.74l-18.436,27.408
	c17.797,18.668,38.395,34.635,61.105,47.262l37.319-140.931c2.708-8.448,2.939-17.446,0.677-26.022L149.617,236.572z"/>
<path style="fill:#983262;" d="M162.078,187.917c0-25.936,21.025-46.961,46.961-46.961S256,161.981,256,187.917
	c0-25.936,21.025-46.961,46.961-46.961s46.961,21.025,46.961,46.961c0,58.172-93.922,102.806-93.922,102.806
	S162.078,239.955,162.078,187.917z"/>
<path style="fill:#662E57;" d="M255.952,290.697c0.022,0.012,0.048,0.026,0.048,0.026s93.922-44.634,93.922-102.806
	c0-25.936-21.025-46.961-46.961-46.961S256,161.981,256,187.917L255.952,290.697z"/>
<g>
</g>
<g>
</g>
<g>
</g>
<g>
</g>
<g>
</g>
<g>
</g>
<g>
</g>
<g>
</g>
<g>
</g>
<g>
</g>
<g>
</g>
<g>
</g>
<g>
</g>
<g>
</g>
<g>
</g>
</svg>
