<svg height="512pt" viewBox="0 0 512 512" width="512pt" xmlns="http://www.w3.org/2000/svg"><path d="m512 256c0 141.386719-114.613281 256-256 256s-256-114.613281-256-256 114.613281-256 256-256 256 114.613281 256 256zm0 0" fill="#fdbf00"/><path d="m268.878906 243.832031-42.609375-42.609375-72.308593 72.308594-62.828126-62.832031-13.859374 13.863281 62.828124 62.828125-62.871093 62.871094 31.417969 31.417969-10.460938 10.457031 116.535156 116.535156c13.4375 2.179687 27.222656 3.328125 41.277344 3.328125 141.386719 0 256-114.613281 256-256 0-5.949219-.21875-11.847656-.621094-17.695312l-118.484375-118.488282zm0 0" fill="#ff9100"/><path d="m77.203125 203.617188h41.90625v20.953124h-41.90625zm0 0" fill="#895d3c"/><path d="m392.890625 203.617188h41.90625v20.953124h-41.90625zm0 0" fill="#714c2f"/><path d="m413.84375 203.617188-16.34375 20.953124h-278.390625l-20.953125-20.953124 20.953125-83.808594h273.78125zm0 0" fill="#e63950"/><path d="m413.84375 203.617188-16.34375 20.953124h-141.5v-104.761718h136.890625zm0 0" fill="#ae2538"/><path d="m397.5 224.570312h-283l20.953125-83.808593h241.09375zm0 0" fill="#714c2f"/><path d="m397.5 224.570312h-141.5v-83.808593h120.546875zm0 0" fill="#523522"/><path d="m177.308594 163.480469 62.863281 41.90625-11.621094 17.433593-62.863281-41.90625zm0 0" fill="#895d3c"/><path d="m283.476562 163.480469 62.859376 41.90625-11.621094 17.433593-62.859375-41.90625zm0 0" fill="#714c2f"/><path d="m98.15625 329.335938h62.859375v62.855468h-62.859375zm0 0" fill="#895d3c"/><path d="m350.984375 329.335938h62.859375v62.855468h-62.859375zm0 0" fill="#714c2f"/><path d="m434.796875 245.523438v104.765624h-115.238281l-20.953125-20.953124h-85.210938l-20.953125 20.953124h-115.238281v-104.765624l20.953125-41.90625h315.6875zm0 0" fill="#ff637b"/><path d="m434.796875 245.523438v104.765624h-115.238281l-20.953125-20.953124h-42.605469v-125.71875h157.84375zm0 0" fill="#e63950"/><path d="m192.441406 308.382812h127.117188v41.90625h-127.117188zm0 0" fill="#d8d8fc"/><path d="m150.539062 308.382812c-17.332031 0-31.429687-14.097656-31.429687-31.429687s14.097656-31.429687 31.429687-31.429687c17.328126 0 31.429688 14.097656 31.429688 31.429687s-14.101562 31.429687-31.429688 31.429687zm0 0" fill="#ffda2d"/><path d="m361.460938 308.382812c-17.328126 0-31.429688-14.097656-31.429688-31.429687s14.101562-31.429687 31.429688-31.429687c17.332031 0 31.429687 14.097656 31.429687 31.429687s-14.097656 31.429687-31.429687 31.429687zm0 0" fill="#fdbf00"/><path d="m202.921875 245.523438h106.160156v20.953124h-106.160156zm0 0" fill="#e63950"/><path d="m256 245.523438h53.078125v20.953124h-53.078125zm0 0" fill="#ae2538"/><path d="m256 308.382812h63.558594v41.90625h-63.558594zm0 0" fill="#dabba6"/></svg>