<?xml version="1.0" encoding="iso-8859-1"?>
<!-- Generator: Adobe Illustrator 21.0.0, SVG Export Plug-In . SVG Version: 6.00 Build 0)  -->
<svg xmlns="http://www.w3.org/2000/svg" xmlns:xlink="http://www.w3.org/1999/xlink" version="1.1" id="Capa_1" x="0px" y="0px" viewBox="0 0 512 512" style="enable-background:new 0 0 512 512;" xml:space="preserve" width="512" height="512">
<g>
	<g>
		<g>
			<g>
				<g>
					<g>
						<g>
							<g>
								<g>
									<g>
										<g>
											<g>
												<circle style="fill:#FFDA00;" cx="256" cy="256" r="256"/>
											</g>
										</g>
									</g>
								</g>
							</g>
						</g>
					</g>
				</g>
			</g>
		</g>
	</g>
	<path style="fill:#FFB000;" d="M512,256c0-21.767-2.726-42.896-7.839-63.073l-98.078-98.078l-13.805,33.892L340.537,77   l-234.62,65.756l107.052,107.052l-107.052,4.135L214.13,362.155l-108.213,7.089l142.64,142.64C251.03,511.955,253.51,512,256,512   C397.385,512,512,397.385,512,256z"/>
	<g>
		<polygon style="fill:#333940;" points="406.083,142.756 317.587,190.663 317.587,94.849 406.083,94.849   "/>
	</g>
	<g>
		<polygon style="fill:#333940;" points="406.083,253.943 317.587,301.85 317.587,206.036 406.083,206.036   "/>
	</g>
	<g>
		<polygon style="fill:#333940;" points="406.083,369.244 317.587,417.151 317.587,321.337 406.083,321.337   "/>
	</g>
	<g>
		<polygon style="fill:#353D44;" points="105.917,142.756 194.413,190.663 194.413,94.849 105.917,94.849   "/>
	</g>
	<g>
		<polygon style="fill:#353D44;" points="105.917,253.943 194.413,301.85 194.413,206.036 105.917,206.036   "/>
	</g>
	<g>
		<polygon style="fill:#353D44;" points="105.917,369.244 194.413,417.151 194.413,321.337 105.917,321.337   "/>
	</g>
	<g>
		<rect x="171.463" y="77" style="fill:#555A66;" width="169.075" height="353.886"/>
	</g>
	<g>
		<rect x="171.463" y="77" style="fill:#555A66;" width="169.075" height="353.886"/>
	</g>
	<g>
		<rect x="255.905" y="77" style="fill:#353D44;" width="84.633" height="353.886"/>
	</g>
	<g>
		<circle style="fill:#FF641A;" cx="256" cy="142.756" r="47.907"/>
	</g>
	<g>
		<path style="fill:#F03800;" d="M256,94.849c-0.032,0-0.063,0.002-0.095,0.002v95.81c0.032,0,0.063,0.002,0.095,0.002    c26.458,0,47.907-21.449,47.907-47.907C303.907,116.297,282.458,94.849,256,94.849z"/>
	</g>
	<g>
		<circle style="fill:#FFDA00;" cx="256" cy="256" r="47.907"/>
	</g>
	<g>
		<path style="fill:#FFB000;" d="M256,208.093c-0.032,0-0.063,0.002-0.095,0.002v95.81c0.032,0,0.063,0.002,0.095,0.002    c26.458,0,47.907-21.449,47.907-47.907C303.907,229.542,282.458,208.093,256,208.093z"/>
	</g>
	<g>
		<circle style="fill:#7FE881;" cx="256" cy="369.244" r="47.907"/>
	</g>
	<g>
		<path style="fill:#5BC980;" d="M256,321.337c-0.032,0-0.063,0.002-0.095,0.002v95.81c0.032,0,0.063,0.002,0.095,0.002    c26.458,0,47.907-21.449,47.907-47.907S282.458,321.337,256,321.337z"/>
	</g>
</g>















</svg>
