<?xml version="1.0" encoding="iso-8859-1"?>
<!-- Generator: Adobe Illustrator 21.0.0, SVG Export Plug-In . SVG Version: 6.00 Build 0)  -->
<svg xmlns="http://www.w3.org/2000/svg" xmlns:xlink="http://www.w3.org/1999/xlink" version="1.1" id="Capa_1" x="0px" y="0px" viewBox="0 0 512 512" style="enable-background:new 0 0 512 512;" xml:space="preserve" width="512" height="512">
<g>
	<g>
		<g>
			<g>
				<g>
					<g>
						<g>
							<g>
								<g>
									<g>
										<g>
											<g>
												<circle style="fill:#7FE881;" cx="256" cy="256" r="256"/>
											</g>
										</g>
									</g>
								</g>
							</g>
						</g>
					</g>
				</g>
			</g>
		</g>
	</g>
	<path style="fill:#5BC980;" d="M512,256c0-9.128-0.487-18.143-1.419-27.024L384.966,103.361L127.034,408.639l101.942,101.942   C237.857,511.513,246.872,512,256,512C397.385,512,512,397.385,512,256z"/>
	<g>
		<rect x="127.034" y="103.361" style="fill:#FFFFFF;" width="257.933" height="305.278"/>
	</g>
	<g>
		<rect x="255.905" y="103.361" style="fill:#E9EDF5;" width="129.062" height="305.278"/>
	</g>
	<g>
		<path style="fill:#555A66;" d="M351.5,189h-125c-10.493,0-19-8.506-19-19s8.507-19,19-19h125c10.493,0,19,8.506,19,19    S361.993,189,351.5,189z"/>
	</g>
	<path style="fill:#353D44;" d="M351.5,151h-95.595v38H270v177c0,10.494,8.507,19,19,19s19-8.506,19-19V189h43.5   c10.493,0,19-8.506,19-19S361.993,151,351.5,151z"/>
	<g>
		<circle style="fill:#555A66;" cx="164.75" cy="182.75" r="21.75"/>
	</g>
	<g>
		<circle style="fill:#555A66;" cx="208.25" cy="239.887" r="21.75"/>
	</g>
	<g>
		<circle style="fill:#555A66;" cx="208.25" cy="299.684" r="21.75"/>
	</g>
	<g>
		<circle style="fill:#555A66;" cx="208.25" cy="359.481" r="21.75"/>
	</g>
</g>















</svg>
