<?xml version="1.0" encoding="iso-8859-1"?>
<!-- Generator: Adobe Illustrator 21.0.0, SVG Export Plug-In . SVG Version: 6.00 Build 0)  -->
<svg xmlns="http://www.w3.org/2000/svg" xmlns:xlink="http://www.w3.org/1999/xlink" version="1.1" id="Capa_1" x="0px" y="0px" viewBox="0 0 512 512" style="enable-background:new 0 0 512 512;" xml:space="preserve" width="512" height="512">
<g>
	<g>
		<g>
			<g>
				<g>
					<g>
						<g>
							<g>
								<g>
									<g>
										<g>
											<g>
												<circle style="fill:#FFDA00;" cx="256" cy="256" r="256"/>
											</g>
										</g>
									</g>
								</g>
							</g>
						</g>
					</g>
				</g>
			</g>
		</g>
	</g>
	<path style="fill:#FFB000;" d="M510.425,284.393l-168-168l-114.347-14.06l-125.149,48.81l7.092,203.642L266.986,511.75   C393.773,506.395,496.691,408.836,510.425,284.393z"/>
	<g>
		<path style="fill:#353D44;" d="M228.078,187.498c-55.77,0-105.157,20.315-135.553,51.537l5.996,28.481    c11.196-6.346,24.133-9.975,37.922-9.975c42.541,0,77.026,34.486,77.026,77.026c0,11.97-2.731,23.302-7.603,33.408h44.422    c-4.872-10.106-7.603-21.438-7.603-33.408c0-42.541,34.486-77.026,77.027-77.026c19.535,0,37.365,7.279,50.943,19.265v-29.953    C341.218,211.244,288.377,187.498,228.078,187.498z"/>
	</g>
	<g>
		<path style="fill:#333940;" d="M228.078,187.498c-0.249,0-0.496,0.008-0.744,0.009v180.469h22.956    c-4.872-10.106-7.603-21.438-7.603-33.408c0-42.541,34.486-77.027,77.027-77.027c19.535,0,37.365,7.28,50.943,19.265v-29.953    C341.218,211.244,288.377,187.498,228.078,187.498z"/>
	</g>
	<g>
		<path style="fill:#555A66;" d="M228.078,70.905c-91.95,0-166.491,74.54-166.491,166.491s74.541,166.491,166.491,166.491    s166.491-74.54,166.491-166.491S320.028,70.905,228.078,70.905z M228.078,354.785c-64.832,0-117.388-52.557-117.388-117.389    s52.557-117.389,117.388-117.389s117.388,52.557,117.388,117.389S292.91,354.785,228.078,354.785z"/>
	</g>
	<g>
		<path style="fill:#353D44;" d="M228.078,70.905c-0.249,0-0.496,0.008-0.744,0.009v49.102c0.249-0.002,0.495-0.01,0.744-0.01    c64.832,0,117.388,52.557,117.388,117.389c0,64.832-52.557,117.388-117.388,117.388c-0.249,0-0.496-0.008-0.744-0.009v49.102    c0.249,0.001,0.495,0.009,0.744,0.009c91.95,0,166.491-74.541,166.491-166.491S320.028,70.905,228.078,70.905z"/>
	</g>
	<g>
		<circle style="fill:#7FE881;" cx="335.614" cy="361.015" r="75.386"/>
	</g>
	<g>
		<path style="fill:#5BC980;" d="M411,361.015c0-41.617-33.723-75.356-75.333-75.385v150.769    C377.277,436.371,411,402.632,411,361.015z"/>
	</g>
	<g>
		<polygon style="fill:#555A66;" points="324.784,408.022 284.714,367.953 305.927,346.74 323.695,364.507 365.288,318.53     387.535,338.656   "/>
	</g>
	<g>
		<polygon style="fill:#353D44;" points="365.288,318.53 335.667,351.273 335.667,395.992 387.535,338.656   "/>
	</g>
</g>















</svg>
