<?xml version="1.0" encoding="UTF-8"?>
<!DOCTYPE svg PUBLIC "-//W3C//DTD SVG 1.1//EN" "http://www.w3.org/Graphics/SVG/1.1/DTD/svg11.dtd">
<!-- Creator: CorelDRAW 2019 (64-Bit) -->
<svg xmlns="http://www.w3.org/2000/svg" xml:space="preserve" width="419.999mm" height="419.999mm" version="1.1" style="shape-rendering:geometricPrecision; text-rendering:geometricPrecision; image-rendering:optimizeQuality; fill-rule:evenodd; clip-rule:evenodd"
viewBox="0 0 84125 84125"
 xmlns:xlink="http://www.w3.org/1999/xlink"
 xmlns:xodm="http://www.corel.com/coreldraw/odm/2003">
 <defs>
  <style type="text/css">
   <![CDATA[
    .fil1 {fill:#37474F;fill-rule:nonzero}
    .fil0 {fill:#546E7A;fill-rule:nonzero}
    .fil2 {fill:#F9A825;fill-rule:nonzero}
    .fil3 {fill:#FBC02D;fill-rule:nonzero}
    .fil4 {fill:#FFEB3B;fill-rule:nonzero}
   ]]>
  </style>
 </defs>
 <g id="Camada_x0020_1">
  <metadata id="CorelCorpID_0Corel-Layer"/>
  <g id="_1648110736480">
   <path class="fil0" d="M13.3 43120.5c-8.6,-351.6 -13.3,-704.2 -13.3,-1058 0,-23230.5 18832.2,-42062.5 42062.5,-42062.5 23230.5,0 42062.5,18832 42062.5,42062.5 0,22583.1 -17797.9,41007.5 -40132.1,42016.7l-43979.6 -40958.7z"/>
   <path class="fil1" d="M57539.7 20705.1l6496 43331 -20043.1 20043.1c-640.1,28.9 -1283.2,45.8 -1930.4,45.8 -22876.7,0 -41487.6,-18263 -42049.2,-41004.5l23918.3 -23918 33608.4 1502.6z"/>
   <path class="fil2" d="M19202.4 42062.5l8229.6 0c0,8066.8 6563.6,14630.4 14630.4,14630.4 8066.8,0 14630.5,-6563.5 14630.5,-14630.4 0,-8066.8 -6563.6,-14630.4 -14630.4,-14630.4l-7315.3 -10861.3 9715.3 -0c12996.7,1213.7 23203.2,12183.2 23203.2,25491.7 0,14117.7 -11485.7,25603.3 -25603.3,25603.3 -13246.6,0 -24175.8,-10111.8 -25474.1,-23022l2613.9 -2581.3z"/>
   <path class="fil3" d="M19202.4 42062.5l-8229.6 0c0,17143.3 13946.5,31089.6 31089.6,31089.6 17143.1,0 31089.8,-13946.4 31089.8,-31089.6 0,-17143.3 -13946.5,-31089.6 -31089.8,-31089.6l-3657.6 4114.7 3657.6 4114.7c12626.1,0 22860,10234 22860,22860 0,12626 -10234,22860 -22860,22860 -12626,0 -22860,-10233.7 -22860,-22859.8z"/>
   <polygon class="fil4" points="42062.4,5486.4 42062.4,19202.5 32996.9,21557 23931.3,19202.5 "/>
   <polygon class="fil3" points="42062.4,19202.5 42062.4,32918.5 23931.3,19202.5 "/>
   <g>
   </g>
   <g>
   </g>
   <g>
   </g>
   <g>
   </g>
   <g>
   </g>
   <g>
   </g>
   <g>
   </g>
   <g>
   </g>
   <g>
   </g>
   <g>
   </g>
   <g>
   </g>
   <g>
   </g>
   <g>
   </g>
   <g>
   </g>
   <g>
   </g>
  </g>
 </g>
</svg>
