<?xml version="1.0" encoding="iso-8859-1"?>
<!-- Generator: Adobe Illustrator 21.0.0, SVG Export Plug-In . SVG Version: 6.00 Build 0)  -->
<svg xmlns="http://www.w3.org/2000/svg" xmlns:xlink="http://www.w3.org/1999/xlink" version="1.1" id="Capa_1" x="0px" y="0px" viewBox="0 0 512 512" style="enable-background:new 0 0 512 512;" xml:space="preserve" width="512" height="512">
<g>
	<g>
		<g>
			<g>
				<g>
					<g>
						<g>
							<g>
								<g>
									<g>
										<g>
											<g>
												<circle style="fill:#FF641A;" cx="256" cy="256" r="256"/>
											</g>
										</g>
									</g>
								</g>
							</g>
						</g>
					</g>
				</g>
			</g>
		</g>
	</g>
	<path style="fill:#F03800;" d="M511.953,259.677L352.869,100.592c0,0-96.869,353.269-96.869,351.408l54.226,54.226   C424.408,481.597,510.246,380.818,511.953,259.677z"/>
	<g>
		<path style="fill:#FFFFFF;" d="M119.884,196.205c0-75.175,60.941-136.116,136.116-136.116s136.116,60.941,136.116,136.116    S256,452,256,452S119.884,271.379,119.884,196.205z"/>
	</g>
	<g>
		<path style="fill:#E9EDF5;" d="M256,452c0,0,136.116-180.621,136.116-255.795c0-75.174-60.941-136.116-136.116-136.116    c-0.032,0-0.063,0.001-0.095,0.001L256,452z"/>
	</g>
	<g>
		<path style="fill:#353D44;" d="M253.631,159.438c-37.61,0-70.916,13.7-91.415,34.756l4.044,19.207    c7.55-4.28,16.275-6.727,25.574-6.727c28.689,0,51.946,23.257,51.946,51.946c0,8.073-1.841,15.715-5.127,22.53h29.958    c-3.286-6.815-5.127-14.458-5.127-22.53c0-28.689,23.257-51.946,51.946-51.946c13.174,0,25.198,4.909,34.355,12.992v-20.2    C329.932,175.452,294.296,159.438,253.631,159.438z"/>
	</g>
	<g>
		<path style="fill:#333940;" d="M255.905,159.466v121.684h12.705c-3.286-6.815-5.127-14.458-5.127-22.53    c0-28.689,23.257-51.946,51.946-51.946c13.174,0,25.198,4.909,34.355,12.992v-20.2    C330.303,175.901,295.621,160.051,255.905,159.466z"/>
	</g>
	<g>
		<path style="fill:#555A66;" d="M256,80.809c-62.01,0-112.279,50.269-112.279,112.279S193.99,305.368,256,305.368    s112.279-50.269,112.279-112.279S318.01,80.809,256,80.809z M256,272.254c-43.722,0-79.165-35.443-79.165-79.165    s35.443-79.165,79.165-79.165s79.165,35.443,79.165,79.165S299.722,272.254,256,272.254z"/>
	</g>
	<g>
		<path style="fill:#353D44;" d="M256,80.81c-0.032,0-0.063,0.001-0.095,0.001v33.115c0.032,0,0.063-0.002,0.095-0.002    c43.722,0,79.165,35.443,79.165,79.165S299.722,272.254,256,272.254c-0.032,0-0.063-0.002-0.095-0.002v33.115    c0.032,0,0.063,0.001,0.095,0.001c62.01,0,112.279-50.269,112.279-112.279C368.279,131.079,318.01,80.81,256,80.81z"/>
	</g>
</g>















</svg>
