<?xml version="1.0" encoding="iso-8859-1"?>
<!-- Generator: Adobe Illustrator 21.0.0, SVG Export Plug-In . SVG Version: 6.00 Build 0)  -->
<svg xmlns="http://www.w3.org/2000/svg" xmlns:xlink="http://www.w3.org/1999/xlink" version="1.1" id="Capa_1" x="0px" y="0px" viewBox="0 0 512 512" style="enable-background:new 0 0 512 512;" xml:space="preserve" width="512" height="512">
<g>
	<g>
		<g>
			<g>
				<g>
					<g>
						<g>
							<g>
								<g>
									<g>
										<g>
											<g>
												<circle style="fill:#4BB9EC;" cx="256" cy="256" r="256"/>
											</g>
										</g>
									</g>
								</g>
							</g>
						</g>
					</g>
				</g>
			</g>
		</g>
	</g>
	<path style="fill:#0095FF;" d="M508.289,299.581L452,243.292l-26.665,21.206L318.739,157.901c0,0-212.039,147.719-214.012,145.745   l203.102,203.102C410.359,485.666,490.502,403.276,508.289,299.581z"/>
	<g>
		<path style="fill:#FFFFFF;" d="M315,306.144H171.363c-43.637,0-79.012-35.375-79.012-79.012v0    c0-43.637,35.375-79.012,79.012-79.012h80.392c34.929,0,63.245,28.316,63.245,63.245V306.144z"/>
		<path style="fill:#E9EDF5;" d="M97.544,255.31c11.351,29.718,40.112,50.834,73.819,50.834H315V255.31H97.544z"/>
		<path style="fill:#555A66;" d="M337.5,328.644H171.363c-55.974,0-101.512-45.538-101.512-101.512    c0-55.974,45.538-101.512,101.512-101.512h80.393c47.28,0,85.745,38.465,85.745,85.745V328.644z M171.363,170.62    c-31.161,0-56.512,25.351-56.512,56.512c0,31.161,25.351,56.512,56.512,56.512H292.5v-72.279    c0-22.467-18.278-40.745-40.745-40.745H171.363z"/>
		<path style="fill:#353D44;" d="M292.5,255.31v28.334H171.363c-20.903,0-39.179-11.417-48.954-28.334H73.833    c12.243,42.309,51.329,73.334,97.529,73.334H337.5V255.31H292.5z"/>
	</g>
	<g>
		<polygon style="fill:#555A66;" points="452,390 315,325.047 315,217.292 452,243.292   "/>
	</g>
	<g>
		<polygon style="fill:#353D44;" points="315,255.31 315,325.047 452,390 452,255.31   "/>
	</g>
</g>















</svg>
