<?xml version="1.0" encoding="iso-8859-1"?>
<!-- Generator: Adobe Illustrator 21.0.0, SVG Export Plug-In . SVG Version: 6.00 Build 0)  -->
<svg xmlns="http://www.w3.org/2000/svg" xmlns:xlink="http://www.w3.org/1999/xlink" version="1.1" id="Capa_1" x="0px" y="0px" viewBox="0 0 512 512" style="enable-background:new 0 0 512 512;" xml:space="preserve" width="512" height="512">
<g>
	<g>
		<g>
			<g>
				<g>
					<g>
						<g>
							<g>
								<g>
									<g>
										<g>
											<g>
												<g>
													<circle style="fill:#4BB9EC;" cx="256" cy="256" r="256"/>
												</g>
											</g>
										</g>
									</g>
								</g>
							</g>
						</g>
					</g>
				</g>
			</g>
		</g>
	</g>
	<path style="fill:#0095FF;" d="M512,256c0-12.569-0.923-24.922-2.673-37.006L381.333,91l-16.677,30.159L320.497,77l-189.83,344   l88.328,88.328C231.079,511.077,243.431,512,256,512C397.385,512,512,397.385,512,256z"/>
	<g>
		<rect x="130.667" y="91" style="fill:#FF641A;" width="250.667" height="330"/>
	</g>
	<g>
		<rect x="255.905" y="91" style="fill:#F03800;" width="125.428" height="330"/>
	</g>
	<g>
		<rect x="153.668" y="115.709" style="fill:#FFFFFF;" width="204.664" height="280.581"/>
	</g>
	<g>
		<rect x="255.905" y="115.709" style="fill:#E9EDF5;" width="102.427" height="280.581"/>
	</g>
	<g>
		<rect x="172.221" y="148.649" style="fill:#AFB4C8;" width="57.244" height="69.261"/>
	</g>
	<g>
		<circle style="fill:#555A66;" cx="200.842" cy="173.729" r="15.315"/>
	</g>
	<g>
		<path style="fill:#555A66;" d="M175.05,217.91h51.584c-0.645-13.687-11.945-24.587-25.792-24.587    C186.995,193.323,175.696,204.223,175.05,217.91z"/>
	</g>
	<g>
		<rect x="272.925" y="186" style="fill:#353D44;" width="64.615" height="30"/>
	</g>
	<g>
		<rect x="172.221" y="240" style="fill:#9196AA;" width="165.32" height="30"/>
	</g>
	<g>
		<rect x="255.905" y="240" style="fill:#7E8596;" width="81.635" height="30"/>
	</g>
	<g>
		<rect x="172.221" y="294" style="fill:#9196AA;" width="165.32" height="30"/>
	</g>
	<g>
		<rect x="255.905" y="294" style="fill:#7E8596;" width="81.635" height="30"/>
	</g>
	<g>
		<rect x="172.221" y="348" style="fill:#9196AA;" width="165.32" height="30"/>
	</g>
	<g>
		<rect x="255.905" y="348" style="fill:#7E8596;" width="81.635" height="30"/>
	</g>
	<g>
		<rect x="191.503" y="77" style="fill:#FFDA00;" width="128.994" height="55.709"/>
	</g>
	<g>
		<rect x="255.905" y="77" style="fill:#FFB000;" width="64.592" height="55.709"/>
	</g>
</g>















</svg>
