<?xml version="1.0" encoding="UTF-8"?>
<!DOCTYPE svg PUBLIC "-//W3C//DTD SVG 1.1//EN" "http://www.w3.org/Graphics/SVG/1.1/DTD/svg11.dtd">
<!-- Creator: CorelDRAW 2019 (64-Bit) -->
<svg xmlns="http://www.w3.org/2000/svg" xml:space="preserve" width="135.495mm" height="135.495mm" version="1.1" style="shape-rendering:geometricPrecision; text-rendering:geometricPrecision; image-rendering:optimizeQuality; fill-rule:evenodd; clip-rule:evenodd"
viewBox="0 0 135494.8 135494.8"
 xmlns:xlink="http://www.w3.org/1999/xlink"
 xmlns:xodm="http://www.corel.com/coreldraw/odm/2003">
 <defs>
  <style type="text/css">
   <![CDATA[
    .fil2 {fill:none;fill-rule:nonzero}
    .fil11 {fill:#353D44;fill-rule:nonzero}
    .fil9 {fill:#545454;fill-rule:nonzero}
    .fil6 {fill:#707789;fill-rule:nonzero}
    .fil5 {fill:#7E8596;fill-rule:nonzero}
    .fil10 {fill:#969696;fill-rule:nonzero}
    .fil8 {fill:#E9EDF5;fill-rule:nonzero}
    .fil1 {fill:#F03800;fill-rule:nonzero}
    .fil0 {fill:#FF641A;fill-rule:nonzero}
    .fil4 {fill:#FFB000;fill-rule:nonzero}
    .fil3 {fill:#FFDA00;fill-rule:nonzero}
    .fil7 {fill:white;fill-rule:nonzero}
   ]]>
  </style>
   <clipPath id="id0" style="clip-rule:nonzero">
    <path d="M127861.2 36536.2c-17237.5,-33199.9 -58125,-46140 -91325,-28902.6 -33199.9,17237.5 -46140,58125 -28902.6,91325 17237.5,33199.9 58125,46140 91325,28902.6 33199.9,-17237.5 46140,-58125 28902.6,-91325z"/>
   </clipPath>
 </defs>
 <g id="Layer_x0020_1">
  <metadata id="CorelCorpID_0Corel-Layer"/>
  <path class="fil0" d="M127861.2 36536.2c-17237.5,-33199.9 -58125,-46140 -91325,-28902.6 -33199.9,17237.5 -46140,58125 -28902.6,91325 17237.5,33199.9 58125,46140 91325,28902.6 33199.9,-17237.5 46140,-58125 28902.6,-91325z"/>
  <g style="clip-path:url(#id0)">
   <g id="_3134928875248">
    <path id="1" class="fil1" d="M146157.1 53615.7l-125050.2 66631.5 54262.4 37456.1c679,-324.8 22916.3,-29492.7 23589.3,-29842.1 29854.9,-15500.8 57321.4,-43283.6 47198.5,-74245.5z"/>
   </g>
  </g>
  <path class="fil2" d="M127861.2 36536.2c-17237.5,-33199.9 -58125,-46140 -91325,-28902.6 -33199.9,17237.5 -46140,58125 -28902.6,91325 17237.5,33199.9 58125,46140 91325,28902.6 33199.9,-17237.5 46140,-58125 28902.6,-91325z"/>
  <path class="fil3" d="M89184.7 40746.4l-12244.4 -9883.7c-4461.9,-3601.7 -10632.5,-4221.6 -15721.8,-1579.2l-29215.7 15168.9c-5089.3,2642.4 -8132.5,8046 -7753.7,13767.7l1039.4 15701.4 -9310.8 4834.1 14374.4 27685.7 93565.9 -48579.6 -4404.9 -8484.1c-5505.9,-10604.6 -18566.5,-14738 -29171.2,-9232.1l-1157.2 600.9z"/>
  <path class="fil4" d="M119512.9 49377.9c-5506,-10604.7 -18566.5,-14738.1 -29171.2,-9232.1l-1157 600.6 -12244.4 -9883.7c-4462,-3601.9 -10632.5,-4221.6 -15721.8,-1579.2l-10609.8 5508.7 25000.4 48151.6 48308.7 -25082 -4404.9 -8483.9z"/>
  <path class="fil5" d="M23240.4 103786.8l75 144.4c1392.1,2681.1 4770,3687.1 7544.9,2246.3l92532.9 -48043.3c2783,-1445 3900.9,-4800.9 2492.8,-7484.1 -25.3,-47.9 -50.5,-96 -75.7,-144 -1399.9,-2667 -4767.6,-3661.7 -7534,-2225.4l-92532.2 48042.9c-2774.9,1440.7 -3895.7,4782 -2503.7,7463.2z"/>
  <path class="fil6" d="M125810.5 50506c-1399.9,-2667 -4767.6,-3661.8 -7533.9,-2225.5l-47783.7 24809.4 5116.3 9854.1 47784.1 -24809.5c2783.3,-1445.1 3900.9,-4800.9 2492.8,-7484.1 -25.3,-48.3 -50.6,-96.3 -75.6,-144.4z"/>
  <path class="fil7" d="M33869 48960.9c-2175,1129.2 -3475.2,3438.3 -3313.6,5883.3l1073.5 16217.2 22988.4 -11935.6 -8562.8 -16492.1 -12185.7 6326.9 0.2 0.3z"/>
  <path class="fil7" d="M72294 34139.4c-2349.1,-1896.3 -5597.8,-2222.5 -8277.1,-831.4l-12185.9 6326.9 8562.7 16492.1 23818.9 -12366.8 -11918.6 -9620.8z"/>
  <path class="fil8" d="M72294 34139.4c-2349.1,-1896.3 -5597.8,-2222.5 -8277.1,-831.4l-11168.2 5798.5 8562.8 16492.1 22801.3 -11838.5 -11918.8 -9620.7z"/>
  <circle class="fil9" transform="matrix(0.887507 -0.460795 0.460795 0.887507 45613.1 96706.4)" r="12006.8"/>
  <circle class="fil10" transform="matrix(0.887507 -0.460795 0.460795 0.887507 45613.1 96706.4)" r="5463.1"/>
  <circle class="fil11" transform="matrix(0.887507 -0.460795 0.460795 0.887507 107162 64750.2)" r="12006.8"/>
  <circle class="fil10" transform="matrix(0.887507 -0.460795 0.460795 0.887507 107162 64750.2)" r="5463.1"/>
  <path class="fil8" d="M109341.8 39692.2l-6273.4 3257.2 0 0c2064.9,3977.1 6962.9,5527.3 10940.1,3462.3l2567 -1332.8c-2035.4,-2323.4 -4511.6,-4138.4 -7233.7,-5386.7z"/>
 </g>
</svg>
